<svg width="471" height="658" viewBox="0 0 471 658" fill="none" xmlns="http://www.w3.org/2000/svg">
<g clip-path="url(#clip0_47_2136)">
<path d="M329.906 0V62.992H259.139V5.24199C259.139 2.34788 261.482 0 264.369 0H329.906Z" fill="#EFA48B"/>
<path d="M416.496 5.24199V62.992H345.29V0H411.266C414.153 0 416.496 2.34788 416.496 5.24199Z" fill="#EFA48B"/>
<path d="M329.906 78.4096H259.139V140.08H329.906V78.4096Z" fill="#EFA48B"/>
<path d="M416.496 78.4096H345.29V140.08H416.496V78.4096Z" fill="#EFA48B"/>
<path d="M329.906 155.498H259.139V209.68H329.906V155.498Z" fill="#EFA48B"/>
<path d="M416.496 155.498H345.29V209.68H416.496V155.498Z" fill="#EFA48B"/>
<path d="M329.906 285.887V222.895H259.139V280.645C259.139 283.539 261.482 285.887 264.369 285.887H329.906Z" fill="#EFA48B"/>
<path d="M416.496 280.645V222.895H345.29V285.887H411.266C414.153 285.887 416.496 283.539 416.496 280.645Z" fill="#EFA48B"/>
<path d="M130.352 0V62.992H59.5849V5.24199C59.5849 2.34788 61.9276 0 64.8155 0H130.352Z" fill="#EFA48B"/>
<path d="M216.942 5.24199V62.992H145.736V0H211.712C214.6 0 216.942 2.34788 216.942 5.24199Z" fill="#EFA48B"/>
<path d="M130.352 78.4096H59.5849V140.08H130.352V78.4096Z" fill="#EFA48B"/>
<path d="M216.942 78.4096H145.736V140.08H216.942V78.4096Z" fill="#EFA48B"/>
<path d="M130.352 155.498H59.5849V209.68H130.352V155.498Z" fill="#EFA48B"/>
<path d="M216.942 155.498H145.736V209.68H216.942V155.498Z" fill="#EFA48B"/>
<path d="M130.352 285.887V222.895H59.5849V280.645C59.5849 283.539 61.9276 285.887 64.8155 285.887H130.352Z" fill="#EFA48B"/>
<path d="M216.942 280.645V222.895H145.736V285.887H211.712C214.6 285.887 216.942 283.539 216.942 280.645Z" fill="#EFA48B"/>
<path d="M180.02 125.984L179.141 140.08L206.648 134.327C206.648 134.327 198.481 119.817 198.481 119.376C198.481 118.936 180.02 125.984 180.02 125.984Z" fill="url(#paint0_linear_47_2136)"/>
<path d="M169.471 86.3386C170.35 86.3386 157.604 130.829 157.604 130.829L142.659 166.951H146.175L166.834 129.508L177.383 83.2551L169.471 86.3386Z" fill="url(#paint1_linear_47_2136)"/>
<path opacity="0.19" d="M166.966 97.2191L166.214 100.012L172.249 105.774L172.913 103.294L166.966 97.2191Z" fill="black"/>
<path d="M177.823 258.135L178.438 276.196H183.976L183.361 245.801L177.823 258.135Z" fill="#FCC8B2"/>
<path d="M210.305 257.307L213.958 274.997L218.371 274.169L212.459 244.356L210.305 257.307Z" fill="#FCC8B2"/>
<path d="M197.739 131.01C195.497 130.821 193.189 131.037 190.899 131.719C188.438 132.455 186.244 133.658 184.385 135.204C183.506 135.939 182.521 136.534 181.511 137.071C179.809 137.97 178.104 139.23 176.693 141.018C171.616 147.463 173.643 156.665 175.761 165.656C185.26 206.001 186.46 209.345 186.46 209.345C201.47 251.351 211.329 266.148 214.687 265.725C220.006 265.055 212.182 225.749 209.061 211.327C204.53 190.368 211.729 169.827 214.169 153.577C214.428 152.432 214.586 151.26 214.622 150.066C214.687 148.119 214.446 146.128 213.861 144.164C211.637 136.666 205.079 131.636 197.739 131.01Z" fill="#EF7772"/>
<path d="M172.548 62.992L172.988 76.2071L180.9 73.1235L178.262 62.111L172.548 62.992Z" fill="#FCC8B2"/>
<path opacity="0.19" d="M172.548 63.4325V68.4719C172.627 68.4763 172.706 68.4807 172.79 68.4807C175.572 68.4807 177.823 66.2209 177.823 63.4369H172.548V63.4325Z" fill="black"/>
<path d="M170.79 73.564C164.737 79.1936 163.937 92.7039 164.197 93.3866C166.271 98.796 171.616 101.642 173.867 107.042C178.095 117.183 174.21 121.98 177.823 126.424C183.313 133.177 200.086 131.693 202.877 125.543C204.402 122.191 200.547 120.134 197.602 111.007C193.721 98.981 198.077 95.3072 193.646 83.6956C192.662 81.1186 188.948 71.3747 183.097 70.921C181.743 70.8153 172.016 72.4231 170.79 73.564Z" fill="#C6D8AF"/>
<path d="M202.6 132.107C200.508 131.283 198.231 130.829 195.844 130.829C193.277 130.829 190.829 131.354 188.609 132.305C187.554 132.754 186.447 133.05 185.321 133.27C183.436 133.644 181.44 134.362 179.581 135.671C172.878 140.393 172.201 149.793 171.669 159.017C169.278 200.403 169.471 203.949 169.471 203.949C171.889 248.501 177.119 265.505 180.46 266.06C185.748 266.941 189.449 227.031 190.57 212.318C192.2 190.936 204.952 173.312 211.918 158.436C212.494 157.414 212.978 156.335 213.351 155.203C213.971 153.357 214.305 151.379 214.305 149.326C214.305 141.503 209.457 134.807 202.6 132.107Z" fill="#EF918B"/>
<path opacity="0.19" d="M158.597 127.354L170.619 112.914L167.652 125.922L157.67 130.609L158.597 127.354Z" fill="black"/>
<path d="M175.185 83.6956L178.262 106.602C178.262 106.602 158.043 127.746 158.483 127.746C158.922 127.746 160.241 129.508 160.241 129.508L187.932 110.126L185.295 81.9336L182.636 80.2905C180.882 79.2113 178.605 79.5857 177.286 81.1671L175.185 83.6956Z" fill="url(#paint2_linear_47_2136)"/>
<path d="M185.735 49.1248C185.735 53.9704 181.682 59.7366 176.944 63.472C176.623 63.7319 176.298 63.9742 175.972 64.2077C173.256 66.1591 170.394 67.3969 167.994 67.3969C161.054 67.3969 160.601 57.0319 160.601 49.1248C160.601 44.9841 162.14 41.2575 164.601 38.6409C164.882 38.3413 165.177 38.055 165.485 37.7863C167.612 35.9142 170.276 34.7997 173.168 34.7997C180.108 34.7997 185.735 41.2134 185.735 49.1248Z" fill="#FCC8B2"/>
<path opacity="0.19" d="M205.795 56.9834C203.607 61.9699 195.721 72.9825 190.24 74.4406C184.332 74.2115 180.952 67.9696 176.944 63.4721C176.623 63.732 176.298 63.9742 175.972 64.2077C175.66 63.8465 175.344 63.4897 175.027 63.1505C170.043 57.8028 173.511 49.6094 166.676 41.1253C165.902 40.1606 165.212 39.3457 164.601 38.6409C164.883 38.3414 165.177 38.055 165.485 37.7863C163.476 35.4649 162.61 34.4649 162.878 33.0377C163.467 29.8925 168.953 27.875 174.583 27.1526C175.941 27.0336 177.282 26.994 178.544 27.0292C180.451 27.0865 194.082 27.7076 201.84 38.9228C203.866 41.8522 209.105 49.4332 205.795 56.9834Z" fill="black"/>
<path d="M207.272 56.8249C204.925 62.1726 196.029 74.445 190.57 74.445C190.46 74.445 190.35 74.445 190.24 74.4406C184.332 74.2116 180.952 67.9696 176.944 63.4721C176.799 63.3091 176.649 63.1505 176.504 62.9919C171.524 57.6442 174.988 49.4509 168.153 40.9668C167.107 39.6717 166.214 38.6365 165.485 37.7863C163.476 35.4649 162.61 34.465 162.878 33.0377C163.467 29.8925 168.953 27.875 174.583 27.1526C176.438 26.9191 178.306 26.8222 180.02 26.8707C181.933 26.9279 195.563 27.5491 203.316 38.7643C205.343 41.6936 210.587 49.2747 207.272 56.8249Z" fill="#DBD8B3"/>
<path d="M207.712 62.5514C210.139 62.5514 212.107 60.5792 212.107 58.1464C212.107 55.7135 210.139 53.7413 207.712 53.7413C205.284 53.7413 203.316 55.7135 203.316 58.1464C203.316 60.5792 205.284 62.5514 207.712 62.5514Z" fill="#B5D8AF"/>
<path d="M209.47 56.3844C208.912 56.4064 206.714 56.6971 203.316 65.6349C200.121 74.0441 198.341 78.7311 199.36 85.0171C200.02 89.0829 202.631 98.611 208.151 99.5537C214.283 100.602 225.32 97.3688 226.173 88.1006C226.74 81.9335 220.542 70.4805 214.305 60.7894C212.564 58.0847 211.162 56.3183 209.47 56.3844Z" fill="#DBD8B3"/>
<path d="M186.614 88.1006H173.867V83.9159C173.867 80.3874 176.719 77.5286 180.24 77.5286C183.761 77.5286 186.614 80.3874 186.614 83.9159V88.1006Z" fill="#B5D8AF"/>
<path opacity="0.19" d="M175.779 88.1006L176.139 90.7921L185.959 88.9949L185.875 88.1006H175.779Z" fill="black"/>
<path d="M186.886 283.363C186.803 283.191 186.693 283.05 186.548 282.926C186.557 282.878 186.561 282.83 186.561 282.777C186.561 282.358 186.31 282.01 185.981 281.935C186.965 279.988 186.438 276.05 184.68 273.936C182.038 270.76 177.366 272.597 171.054 275.077C169.445 275.711 166.926 276.107 165.885 278.499C165.551 279.266 165.48 281.076 165.885 281.922H165.652C165.261 281.922 164.948 282.305 164.948 282.777C164.948 283.094 165.089 283.363 165.3 283.512C165.243 283.829 165.269 284.177 165.441 284.455C166.043 285.442 168.201 285.217 170.258 284.728C170.698 285.173 171.309 285.446 171.981 285.446H179.26C179.928 285.446 180.535 285.177 180.97 284.737C183.291 285.389 186.174 285.913 186.882 284.75C187.146 284.327 187.071 283.746 186.886 283.363Z" fill="#EFA48B"/>
<path d="M224.116 277.962C223.971 277.839 223.808 277.755 223.628 277.706C223.615 277.658 223.597 277.61 223.575 277.565C223.399 277.182 223.026 276.971 222.696 277.046C222.779 274.865 220.656 271.509 218.177 270.324C214.454 268.544 210.973 272.174 206.279 277.072C205.083 278.323 202.96 279.742 203.013 282.345C203.031 283.182 203.721 284.851 204.442 285.455L204.226 285.552C203.875 285.715 203.747 286.195 203.945 286.622C204.077 286.909 204.319 287.098 204.569 287.142C204.648 287.45 204.815 287.759 205.088 287.944C206.046 288.587 207.914 287.477 209.58 286.169C210.165 286.389 210.833 286.384 211.444 286.102L218.054 283.05C218.661 282.768 219.096 282.27 219.311 281.689C221.694 281.31 224.529 280.574 224.687 279.222C224.753 278.728 224.445 278.231 224.116 277.962Z" fill="#EFA48B"/>
<path d="M153.428 127.305C146.268 127.305 140.461 133.124 140.461 140.3C140.461 147.476 146.268 153.295 153.428 153.295C160.588 153.295 166.395 147.476 166.395 140.3C166.395 133.124 160.593 127.305 153.428 127.305ZM153.454 149.185C148.611 149.185 144.685 145.252 144.685 140.397C144.685 135.552 148.611 131.618 153.454 131.618C158.289 131.618 162.214 135.552 162.214 140.397C162.214 145.256 158.289 149.185 153.454 149.185Z" fill="#207D9A"/>
<path d="M157.823 133.472C160.372 133.472 162.439 131.402 162.439 128.847C162.439 126.293 160.372 124.222 157.823 124.222C155.274 124.222 153.208 126.293 153.208 128.847C153.208 131.402 155.274 133.472 157.823 133.472Z" fill="#FCC8B2"/>
<path d="M104.515 143.873C116.264 137.64 132.119 141.384 139.235 152.766C136.945 153.647 135.868 154.198 133.886 155.48C127.086 144.666 113.79 144.895 103.68 150.203C103.728 147.723 103.891 146.436 104.515 143.873Z" fill="#035E7B"/>
<g opacity="0.19">
<path opacity="0.19" d="M105.43 143.415C104.59 146.031 104.335 147.357 104.128 149.921C105.311 149.198 105.909 148.89 107.113 148.361C106.893 146.168 106.876 145.031 107.051 142.736C106.401 142.983 106.076 143.119 105.43 143.415Z" fill="black"/>
</g>
<g opacity="0.19">
<path opacity="0.19" d="M130.281 144.265C129.31 146.379 128.857 147.45 128.018 149.612C130.352 151.018 132.708 153.405 134.057 155.784C135.991 154.423 137.028 153.81 139.226 152.771C136.62 149.15 134.018 146.701 130.281 144.265Z" fill="black"/>
</g>
<path d="M134.774 136.234L166.57 146.194C167.419 146.459 167.863 147.397 167.524 148.225L159.819 167.145C159.551 167.805 158.861 168.189 158.162 168.074C153.586 167.303 137.226 164.268 131.978 163.295C131.055 163.123 130.418 162.273 130.506 161.334C130.967 156.52 132.312 142.551 132.8 137.543C132.901 136.574 133.855 135.944 134.774 136.234Z" fill="#035E7B"/>
<path d="M140.022 166.951C139.613 165.704 141.903 163.242 144.417 162.986C147.85 162.638 151.125 166.479 150.571 167.832C150.07 169.052 146.316 168.572 143.978 168.272C141.806 167.995 140.303 167.801 140.022 166.951Z" fill="#FCC8B2"/>
<path d="M102.88 159.903C101.302 159.903 100.023 158.621 100.023 157.039V135.455C100.023 133.873 101.302 132.591 102.88 132.591C104.458 132.591 105.737 133.873 105.737 135.455V157.039C105.737 158.621 104.458 159.903 102.88 159.903Z" fill="#207D9A"/>
<path d="M465.286 207.918H7.13822C3.98228 207.918 1.42413 205.354 1.42413 202.191V202.041C1.42413 198.878 3.98228 196.315 7.13822 196.315H465.29C468.446 196.315 471.004 198.878 471.004 202.041V202.191C471 205.354 468.442 207.918 465.286 207.918Z" fill="#E6E6E6"/>
<path d="M22.7773 201.16H15.1863V290.142H22.7773V201.16Z" fill="#E6E6E6"/>
<path d="M51.9456 201.407H44.359V290.389H51.9456V201.407Z" fill="#E6E6E6"/>
<path d="M81.1138 201.654H73.5361V290.635H81.1138V201.654Z" fill="#E6E6E6"/>
<path d="M110.278 201.9H102.709V290.882H110.278V201.9Z" fill="#E6E6E6"/>
<path d="M139.45 202.151H131.886V291.133H139.45V202.151Z" fill="#E6E6E6"/>
<path d="M168.619 202.398H161.063V291.38H168.619V202.398Z" fill="#E6E6E6"/>
<path d="M197.783 202.645H190.236V291.626H197.783V202.645Z" fill="#E6E6E6"/>
<path d="M226.955 202.891H219.413V291.873H226.955V202.891Z" fill="#E6E6E6"/>
<path d="M256.119 203.138H248.585V292.12H256.119V203.138Z" fill="#E6E6E6"/>
<path d="M285.287 203.385H277.762V292.366H285.287V203.385Z" fill="#E6E6E6"/>
<path d="M314.456 203.636H306.935V292.618H314.456V203.636Z" fill="#E6E6E6"/>
<path d="M343.624 203.883H336.112V292.864H343.624V203.883Z" fill="#E6E6E6"/>
<path d="M372.792 204.129H365.289V293.111H372.792V204.129Z" fill="#E6E6E6"/>
<path d="M401.956 204.376H394.462V293.358H401.956V204.376Z" fill="#E6E6E6"/>
<path d="M431.129 204.623H423.639V293.604H431.129V204.623Z" fill="#E6E6E6"/>
<path d="M460.293 204.874H452.812V293.855H460.293V204.874Z" fill="#E6E6E6"/>
<path d="M460.89 306H10.1096C4.52732 306 0 301.463 0 295.868C0 290.274 4.52732 285.737 10.1096 285.737H460.89C466.473 285.737 471 290.274 471 295.868C471 301.463 466.477 306 460.89 306Z" fill="#CCCCCC"/>
<path d="M60.82 201.75H24.7113C18.4873 201.75 13.4413 196.694 13.4413 190.456V179.016C13.4413 172.779 18.4873 167.722 24.7113 167.722H60.82C67.044 167.722 72.0899 172.779 72.0899 179.016V190.456C72.0899 196.694 67.044 201.75 60.82 201.75Z" fill="#CCCCCC"/>
<path opacity="0.19" d="M71.5713 162.436C69.8087 157.242 64.1825 154.462 59.0003 156.229C56.7498 156.995 54.9521 158.493 53.7873 160.37C51.4269 156.48 46.6183 154.608 42.1393 156.132C39.4317 157.053 37.379 159.039 36.2933 161.462C33.7264 159.299 30.1265 158.493 26.72 159.652C22.6498 161.039 20.0653 164.819 19.9993 168.893C19.0323 168.92 18.0522 169.092 17.0852 169.418C11.9029 171.184 9.12937 176.822 10.892 182.016C12.6545 187.209 18.2807 189.989 23.463 188.223C24.7333 187.791 25.8541 187.126 26.8035 186.293C29.2738 189.786 33.8231 191.399 38.0735 189.954C39.8185 189.359 41.291 188.324 42.4074 187.016C44.9875 189.333 48.7017 190.227 52.2181 189.033C54.2092 188.355 55.8443 187.104 57.0047 185.527C59.5893 188.068 63.4748 189.095 67.1363 187.848C72.3185 186.082 75.092 180.443 73.3295 175.25C72.7537 173.554 71.7691 172.122 70.5208 171.012C72.0943 168.55 72.5822 165.422 71.5713 162.436ZM53.8092 170.933C53.7653 170.911 53.7213 170.889 53.6818 170.867C53.695 170.845 53.7125 170.823 53.7257 170.796C53.7521 170.845 53.7829 170.889 53.8092 170.933Z" fill="black"/>
<path d="M72.2482 159.202C70.4856 154.009 64.8594 151.229 59.6772 152.996C57.4267 153.762 55.629 155.26 54.4642 157.136C52.1038 153.247 47.2952 151.375 42.8162 152.899C40.1086 153.819 38.0559 155.806 36.9702 158.229C34.4033 156.066 30.8034 155.26 27.3969 156.418C23.3267 157.806 20.7422 161.585 20.6763 165.66C19.7093 165.687 18.7291 165.858 17.7621 166.184C12.5798 167.951 9.80628 173.589 11.5689 178.783C13.3314 183.976 18.9576 186.756 24.1399 184.989C25.4102 184.558 26.531 183.893 27.4804 183.06C29.9507 186.553 34.5 188.165 38.7504 186.721C40.4954 186.126 41.9679 185.091 43.0843 183.782C45.6644 186.099 49.3786 186.994 52.895 185.8C54.8861 185.122 56.5212 183.87 57.6816 182.293C60.2662 184.835 64.1518 185.862 67.8132 184.615C72.9954 182.849 75.769 177.21 74.0064 172.017C73.4306 170.321 72.446 168.889 71.1977 167.779C72.7713 165.316 73.2591 162.189 72.2482 159.202ZM54.4861 167.7C54.4422 167.678 54.3982 167.656 54.3587 167.634C54.3719 167.611 54.3894 167.589 54.4026 167.563C54.429 167.612 54.4598 167.656 54.4861 167.7Z" fill="#C6D8AF"/>
<path d="M32.2715 166.057C32.2715 165.215 31.7088 164.506 30.9396 164.286C31.0056 164.092 31.0451 163.889 31.0451 163.673C31.0451 162.656 30.2232 161.832 29.2078 161.832C28.5881 161.832 28.043 162.136 27.709 162.607C27.4321 162.436 27.1024 162.339 26.7552 162.339C25.7398 162.339 24.9179 163.162 24.9179 164.18C24.9179 164.739 25.164 165.237 25.5552 165.576C24.9618 165.88 24.5574 166.501 24.5574 167.215C24.5574 168.233 25.3794 169.056 26.3947 169.056C26.7991 169.056 27.1727 168.924 27.476 168.704C27.731 169.413 28.4079 169.924 29.2078 169.924C30.2232 169.924 31.0451 169.1 31.0451 168.083C31.0451 167.986 31.0363 167.893 31.0232 167.805C31.7484 167.554 32.2715 166.867 32.2715 166.057Z" fill="#EFA48B"/>
<path d="M52.0906 165.924C52.0906 165.083 51.528 164.374 50.7588 164.154C50.8247 163.96 50.8643 163.757 50.8643 163.541C50.8643 162.524 50.0423 161.7 49.027 161.7C48.4072 161.7 47.8622 162.004 47.5281 162.475C47.2512 162.303 46.9215 162.207 46.5743 162.207C45.559 162.207 44.737 163.03 44.737 164.048C44.737 164.607 44.9831 165.105 45.3743 165.444C44.781 165.748 44.3766 166.369 44.3766 167.083C44.3766 168.1 45.1985 168.924 46.2139 168.924C46.6183 168.924 46.9919 168.792 47.2952 168.572C47.5501 169.281 48.227 169.792 49.027 169.792C50.0423 169.792 50.8643 168.968 50.8643 167.951C50.8643 167.854 50.8555 167.761 50.8423 167.673C51.5675 167.422 52.0906 166.735 52.0906 165.924Z" fill="#EFA48B"/>
<path d="M44.3722 177.373C44.3722 176.532 43.8096 175.822 43.0403 175.602C43.1063 175.408 43.1458 175.206 43.1458 174.99C43.1458 173.972 42.3239 173.149 41.3085 173.149C40.6888 173.149 40.1437 173.453 39.8097 173.924C39.5328 173.752 39.2031 173.655 38.8559 173.655C37.8405 173.655 37.0186 174.479 37.0186 175.496C37.0186 176.056 37.2647 176.554 37.6559 176.893C37.0625 177.197 36.6581 177.818 36.6581 178.532C36.6581 179.549 37.4801 180.373 38.4954 180.373C38.8998 180.373 39.2734 180.241 39.5767 180.02C39.8317 180.73 40.5086 181.241 41.3085 181.241C42.3239 181.241 43.1458 180.417 43.1458 179.399C43.1458 179.302 43.1371 179.21 43.1239 179.122C43.8491 178.871 44.3722 178.184 44.3722 177.373Z" fill="#EFA48B"/>
</g>
<g clip-path="url(#clip1_47_2136)">
<path d="M329.906 352V414.992H259.139V357.242C259.139 354.348 261.482 352 264.369 352H329.906Z" fill="#CDDFE5"/>
<path d="M416.496 357.242V414.992H345.29V352H411.266C414.153 352 416.496 354.348 416.496 357.242Z" fill="#CDDFE5"/>
<path d="M329.906 430.41H259.139V492.08H329.906V430.41Z" fill="#CDDFE5"/>
<path d="M416.496 430.41H345.29V492.08H416.496V430.41Z" fill="#CDDFE5"/>
<path d="M329.906 507.498H259.139V561.68H329.906V507.498Z" fill="#CDDFE5"/>
<path d="M416.496 507.498H345.29V561.68H416.496V507.498Z" fill="#CDDFE5"/>
<path d="M329.906 637.887V574.895H259.139V632.645C259.139 635.539 261.482 637.887 264.369 637.887H329.906Z" fill="#CDDFE5"/>
<path d="M416.496 632.645V574.895H345.29V637.887H411.266C414.153 637.887 416.496 635.539 416.496 632.645Z" fill="#CDDFE5"/>
<path d="M130.352 352V414.992H59.5849V357.242C59.5849 354.348 61.9277 352 64.8155 352H130.352Z" fill="#CDDFE5"/>
<path d="M216.942 357.242V414.992H145.736V352H211.712C214.6 352 216.942 354.348 216.942 357.242Z" fill="#CDDFE5"/>
<path d="M130.352 430.41H59.5849V492.08H130.352V430.41Z" fill="#CDDFE5"/>
<path d="M216.942 430.41H145.736V492.08H216.942V430.41Z" fill="#CDDFE5"/>
<path d="M130.352 507.498H59.5849V561.68H130.352V507.498Z" fill="#CDDFE5"/>
<path d="M216.942 507.498H145.736V561.68H216.942V507.498Z" fill="#CDDFE5"/>
<path d="M130.352 637.887V574.895H59.5849V632.645C59.5849 635.539 61.9277 637.887 64.8155 637.887H130.352Z" fill="#CDDFE5"/>
<path d="M216.942 632.645V574.895H145.736V637.887H211.712C214.6 637.887 216.942 635.539 216.942 632.645Z" fill="#CDDFE5"/>
<path d="M335.532 404.288C308.148 404.288 285.951 426.533 285.951 453.976V588.022C285.951 615.465 308.148 637.71 335.532 637.71C362.916 637.71 385.113 615.465 385.113 588.022V453.972C385.113 426.533 362.916 404.288 335.532 404.288Z" fill="#DBD8A9"/>
<path d="M335.532 420.714C308.148 420.714 285.951 442.96 285.951 470.403V585.141C285.951 612.584 308.148 634.83 335.532 634.83C362.916 634.83 385.113 612.584 385.113 585.141V470.403C385.113 442.96 362.916 420.714 335.532 420.714Z" fill="#DBC9A7"/>
<path d="M385.108 542.623H285.951V637.887H385.108V542.623Z" fill="#DBAE9B"/>
<path d="M335.532 553.706C362.915 553.706 385.113 548.666 385.113 542.447C385.113 536.229 362.915 531.188 335.532 531.188C308.149 531.188 285.951 536.229 285.951 542.447C285.951 548.666 308.149 553.706 335.532 553.706Z" fill="#DBBD9B"/>
<path d="M341.954 445.752H330.895V458.263H341.954V445.752Z" fill="#FCC8B2"/>
<path d="M388.677 462.196L384.04 477.922L397.596 476.852L396.884 462.91L389.389 462.196" fill="#FCC8B2"/>
<path opacity="0.19" d="M340.169 445.752C340.169 449.382 336.059 452.351 330.895 452.536V445.752H340.169Z" fill="black"/>
<path d="M348.015 435.03H324.473C320.337 435.03 316.983 431.669 316.983 427.524C316.983 423.379 320.337 420.018 324.473 420.018H348.015C352.151 420.018 355.505 423.379 355.505 427.524C355.505 431.669 352.151 435.03 348.015 435.03Z" fill="#CCCCCC"/>
<path d="M352.296 430.026C352.296 439.109 345.369 450.4 336.6 450.4C327.831 450.4 320.548 439.105 320.548 430.026C320.548 420.948 327.831 412.155 336.6 412.155C345.369 412.155 352.296 420.943 352.296 430.026Z" fill="#FCC8B2"/>
<path opacity="0.19" d="M387.253 467.2L385.825 471.134L397.24 472.561V468.271L387.253 467.2Z" fill="black"/>
<path d="M369.416 528.325C368.924 533.796 363.39 538.298 358.358 540.121C352.507 542.24 348.551 540.293 341.949 539.408C321.783 536.703 311.08 545.447 306.636 540.121C305.946 539.298 301.524 538.862 303.071 526.897C304.874 512.933 308.254 513.951 308.421 509.383C308.75 500.555 306.935 501.961 306.636 490.437C306.298 477.328 308.632 475.099 306.28 467.557C304.518 461.914 302.038 459.412 303.427 457.192C304.412 455.615 306.812 455.038 317.339 455.761C319.15 455.884 320.702 456.016 322.051 456.139C323.181 456.25 324.178 456.355 325.066 456.461C330.587 457.113 334.662 457.492 335.176 457.549C342.231 458.351 348.753 457.575 354.068 457.056C360.089 456.474 364.577 456.223 366.564 458.981C368.384 461.5 366.023 463.65 365.135 473.993C364.516 481.244 362.731 479.755 362.639 489.005C362.472 505.7 361.808 509.898 364.779 517.603C366.959 523.246 369.79 524.202 369.416 528.325Z" fill="#EF938B"/>
<path d="M365.852 459.337C370.59 458.589 379.438 487.71 380.832 487.221C381.693 486.917 376.44 476.53 380.475 471.491C384.774 466.126 399.978 467.874 402.945 474.35C405.56 480.05 396.519 484.662 392.959 500.445C390.317 512.149 393.416 517.924 390.462 519.391C385.442 521.885 370.41 508.247 364.779 490.794C360.01 476.002 362.45 459.875 365.852 459.337Z" fill="#EFA48B"/>
<path d="M302.852 456.835C299.313 456.593 296.197 462.064 295.102 463.985C290.694 471.72 291.45 478.878 291.617 485.433C292.162 506.969 285.45 517.792 289.292 519.391C293.362 521.087 300.197 516.347 314.869 513.312C321.497 511.942 330.473 507.674 332.306 504.374C333.431 502.353 330.473 491.966 328.429 490.433C323.075 486.411 310.078 499.842 306.728 496.868C303.586 494.08 312.267 485.675 310.992 471.848C310.364 465.09 306.979 457.117 302.852 456.835Z" fill="#EFA48B"/>
<path d="M322.284 613.958H310.869V623.05H322.284V613.958Z" fill="#FCC8B2"/>
<path d="M357.109 615.364H347.835V624.887H357.109V615.364Z" fill="#FCC8B2"/>
<path d="M351.94 461.121C349.32 467.39 339.831 468.764 334.108 468.271C331.809 468.073 323.866 467.39 321.269 461.835C321.053 461.373 319.853 458.699 320.631 456.135C321.761 456.245 322.759 456.351 323.647 456.457C329.167 457.108 333.242 457.487 333.756 457.545C340.811 458.346 347.334 457.571 352.648 457.051C352.885 458.866 352.191 460.518 351.94 461.121Z" fill="#EFA48B"/>
<path d="M330.002 462.553C328.526 462.553 327.326 461.355 327.326 459.87L326.257 455.043C326.257 453.562 328.526 452.184 330.002 452.184C331.479 452.184 332.679 453.382 332.679 454.866V459.87C332.679 461.355 331.479 462.553 330.002 462.553Z" fill="#EFB38B"/>
<path d="M335.352 462.553C333.875 462.553 332.675 461.355 332.675 459.87V454.866C332.675 453.386 333.87 452.184 335.352 452.184C336.829 452.184 338.029 453.382 338.029 454.866V459.87C338.029 461.355 336.833 462.553 335.352 462.553Z" fill="#EF938B"/>
<path d="M345.699 452.188C347.175 452.188 349.444 453.567 349.444 455.047L348.375 459.875C348.375 461.355 347.18 462.557 345.699 462.557C344.222 462.557 343.022 461.359 343.022 459.875V454.871C343.022 453.386 344.222 452.188 345.699 452.188Z" fill="#EF938B"/>
<path d="M340.349 452.188C341.826 452.188 343.026 453.386 343.026 454.871V459.875C343.026 461.355 341.831 462.557 340.349 462.557C338.872 462.557 337.672 461.359 337.672 459.875V454.871C337.672 453.386 338.868 452.188 340.349 452.188Z" fill="#EFB38B"/>
<path d="M320.666 431.365L322.359 437.268C319.185 438.039 315.937 436.167 315.027 432.991C314.579 431.427 315.475 429.802 317.036 429.352C318.592 428.903 320.218 429.806 320.666 431.365Z" fill="#FCC8B2"/>
<path d="M351.531 433.942L349.839 439.845C353.013 440.616 356.261 438.744 357.171 435.568C357.619 434.004 356.722 432.379 355.162 431.929C353.606 431.48 351.98 432.379 351.531 433.942Z" fill="#FCC8B2"/>
<path d="M375.759 634.213H375.39C376.023 632.887 375.913 630.041 375.39 628.839C373.759 625.086 369.803 624.46 367.276 623.465C357.369 619.571 350.028 616.685 345.879 621.672C343.118 624.993 342.292 631.173 343.839 634.23C343.321 634.345 342.929 634.891 342.929 635.548C342.929 636.288 343.426 636.891 344.037 636.891H375.764C376.375 636.891 376.871 636.288 376.871 635.548C376.867 634.812 376.375 634.213 375.759 634.213Z" fill="#EFA48B"/>
<path d="M292.782 634.292H293.151C292.518 632.966 292.628 630.121 293.151 628.918C294.782 625.165 298.738 624.539 301.265 623.544C311.172 619.65 318.513 616.764 322.662 621.751C325.422 625.072 326.249 631.253 324.701 634.31C325.22 634.424 325.611 634.97 325.611 635.627C325.611 636.367 325.115 636.97 324.504 636.97H292.782C292.171 636.97 291.674 636.367 291.674 635.627C291.674 634.887 292.171 634.292 292.782 634.292Z" fill="#EFA48B"/>
<path d="M390.915 465.941C387.535 463.632 387.596 458.787 387.605 457.985C387.666 452.955 391.117 445.805 397.117 445.519C402.04 445.285 407.002 449.761 406.822 453.206C406.668 456.131 402.928 456.056 399.464 462.02C398.066 464.421 397.64 466.218 395.78 466.883C393.539 467.689 391.2 466.134 390.915 465.941Z" fill="#FCC8B2"/>
<path opacity="0.11" d="M330.685 507.018C332.414 506.628 332.956 502.487 331.896 497.768C330.836 493.05 328.575 489.541 326.846 489.931C325.117 490.321 324.575 494.463 325.635 499.181C326.695 503.9 328.957 507.409 330.685 507.018Z" fill="black"/>
<path d="M333.303 499.846L339.457 495.441L336.96 490.437L330.231 492.684C328.064 493.406 326.926 495.793 327.73 497.939L327.818 498.168C328.649 500.401 331.369 501.229 333.303 499.846Z" fill="#FCC8B2"/>
<path d="M346.547 482.887C349.114 484.622 349.087 488.292 349.083 488.9C349.057 492.71 346.472 498.141 341.932 498.379C338.204 498.577 334.424 495.208 334.547 492.6C334.653 490.384 337.483 490.424 340.086 485.895C341.132 484.072 341.453 482.711 342.855 482.195C344.551 481.574 346.332 482.741 346.547 482.887Z" fill="#FCC8B2"/>
<path d="M335.431 543.817L329.444 614.099H305.304L298.755 543.967C297.748 533.188 306.179 523.858 316.983 523.796C327.809 523.735 336.349 533.003 335.431 543.817Z" fill="#035E7B"/>
<path d="M370.92 545.139L364.933 615.421H340.793L334.244 545.288C333.237 534.509 341.668 525.179 352.472 525.118C363.298 525.056 371.843 534.324 370.92 545.139Z" fill="#035E7B"/>
<path opacity="0.11" d="M310.715 614.099L310.869 616.994L322.284 615.72L322.433 614.099H310.715Z" fill="black"/>
<path opacity="0.11" d="M347.835 615.364V618.504L357.109 616.32V615.364H347.835Z" fill="black"/>
<path d="M288.21 532.091C288.21 518.744 277.415 507.925 264.097 507.925H263.912C250.594 507.925 239.799 518.744 239.799 532.091C239.799 541.319 244.959 549.332 252.546 553.407V637.887H288.149V533.725C288.188 533.183 288.21 532.642 288.21 532.091Z" fill="#DBBD9B"/>
<path d="M385.192 532.188C385.192 518.841 395.987 508.022 409.305 508.022H409.49C422.808 508.022 433.603 518.841 433.603 532.188C433.603 541.416 428.443 549.429 420.857 553.504V637.984H385.253V533.818C385.214 533.28 385.192 532.734 385.192 532.188Z" fill="#DBBD9B"/>
<path d="M263.095 545.381C271.106 545.381 277.6 538.873 277.6 530.844C277.6 522.816 271.106 516.308 263.095 516.308C255.084 516.308 248.59 522.816 248.59 530.844C248.59 538.873 255.084 545.381 263.095 545.381Z" fill="#DBC9A7"/>
<path d="M409.464 545.821C417.474 545.821 423.969 539.313 423.969 531.285C423.969 523.256 417.474 516.748 409.464 516.748C401.453 516.748 394.958 523.256 394.958 531.285C394.958 539.313 401.453 545.821 409.464 545.821Z" fill="#DBC9A7"/>
<path d="M268.809 632.601C265.653 632.601 263.095 630.037 263.095 626.874V557.715C263.095 554.552 265.653 551.988 268.809 551.988C271.965 551.988 274.523 554.552 274.523 557.715V626.874C274.523 630.037 271.965 632.601 268.809 632.601Z" fill="#DBC9A7"/>
<path d="M406.826 632.601C403.67 632.601 401.112 630.037 401.112 626.874V557.715C401.112 554.552 403.67 551.988 406.826 551.988C409.982 551.988 412.54 554.552 412.54 557.715V626.874C412.54 630.037 409.982 632.601 406.826 632.601Z" fill="#DBC9A7"/>
<path d="M329.106 438.779C325.185 438.779 321.994 435.581 321.994 431.652C321.994 427.722 325.185 424.524 329.106 424.524C333.026 424.524 336.218 427.722 336.218 431.652C336.218 435.581 333.026 438.779 329.106 438.779ZM329.106 425.67C325.814 425.67 323.132 428.357 323.132 431.656C323.132 434.956 325.814 437.643 329.106 437.643C332.398 437.643 335.079 434.956 335.079 431.656C335.079 428.357 332.398 425.67 329.106 425.67Z" fill="#EF938B"/>
<path d="M343.896 438.779C339.976 438.779 336.785 435.581 336.785 431.652C336.785 427.722 339.976 424.524 343.896 424.524C347.817 424.524 351.008 427.722 351.008 431.652C351.004 435.581 347.817 438.779 343.896 438.779ZM343.896 425.67C340.604 425.67 337.923 428.357 337.923 431.656C337.923 434.956 340.604 437.643 343.896 437.643C347.189 437.643 349.87 434.956 349.87 431.656C349.87 428.357 347.189 425.67 343.896 425.67Z" fill="#EF938B"/>
<path d="M465.286 559.918H7.13822C3.98228 559.918 1.42413 557.354 1.42413 554.191V554.041C1.42413 550.878 3.98228 548.315 7.13822 548.315H465.29C468.446 548.315 471.004 550.878 471.004 554.041V554.191C471 557.354 468.442 559.918 465.286 559.918Z" fill="#E6E6E6"/>
<path d="M22.7773 553.16H15.1863V642.142H22.7773V553.16Z" fill="#E6E6E6"/>
<path d="M51.9456 553.407H44.359V642.389H51.9456V553.407Z" fill="#E6E6E6"/>
<path d="M81.1138 553.654H73.5361V642.635H81.1138V553.654Z" fill="#E6E6E6"/>
<path d="M110.278 553.9H102.709V642.882H110.278V553.9Z" fill="#E6E6E6"/>
<path d="M139.45 554.151H131.886V643.133H139.45V554.151Z" fill="#E6E6E6"/>
<path d="M168.619 554.398H161.063V643.38H168.619V554.398Z" fill="#E6E6E6"/>
<path d="M197.783 554.645H190.236V643.626H197.783V554.645Z" fill="#E6E6E6"/>
<path d="M226.955 554.891H219.413V643.873H226.955V554.891Z" fill="#E6E6E6"/>
<path d="M256.119 555.138H248.585V644.12H256.119V555.138Z" fill="#E6E6E6"/>
<path d="M285.287 555.385H277.762V644.366H285.287V555.385Z" fill="#E6E6E6"/>
<path d="M314.456 555.636H306.935V644.618H314.456V555.636Z" fill="#E6E6E6"/>
<path d="M343.624 555.883H336.112V644.864H343.624V555.883Z" fill="#E6E6E6"/>
<path d="M372.792 556.129H365.289V645.111H372.792V556.129Z" fill="#E6E6E6"/>
<path d="M401.956 556.376H394.462V645.358H401.956V556.376Z" fill="#E6E6E6"/>
<path d="M431.129 556.623H423.639V645.604H431.129V556.623Z" fill="#E6E6E6"/>
<path d="M460.293 556.874H452.812V645.855H460.293V556.874Z" fill="#E6E6E6"/>
<path d="M460.89 658H10.1096C4.52732 658 0 653.463 0 647.868C0 642.274 4.52732 637.737 10.1096 637.737H460.89C466.473 637.737 471 642.274 471 647.868C471 653.463 466.477 658 460.89 658Z" fill="#CCCCCC"/>
<g clip-path="url(#clip2_47_2136)">
<path d="M105.519 482.455L100.142 490.619C98.6126 490.686 96.7511 490.976 94.7133 490.976C92.743 490.976 90.8919 490.702 89.3363 490.624L83.3163 481.491L84.8978 494.457H84.903C84.9859 499.71 89.2741 503.942 94.5526 503.942C99.883 503.942 104.207 499.622 104.207 494.297C104.207 494.007 104.192 493.748 104.171 493.499L105.519 482.455Z" fill="white"/>
<path d="M90.1244 498.881C91.6107 498.881 92.8156 497.677 92.8156 496.193C92.8156 494.708 91.6107 493.504 90.1244 493.504C88.6382 493.504 87.4333 494.708 87.4333 496.193C87.4333 497.677 88.6382 498.881 90.1244 498.881Z" fill="#DBD8B3"/>
<path d="M98.9859 498.881C100.472 498.881 101.677 497.677 101.677 496.193C101.677 494.708 100.472 493.504 98.9859 493.504C97.4997 493.504 96.2948 494.708 96.2948 496.193C96.2948 497.677 97.4997 498.881 98.9859 498.881Z" fill="#DBD8B3"/>
<path d="M135.179 480.523C131.176 476.684 124.279 475.85 119.804 478.663C113.665 482.522 114.07 491.287 114.339 497.084C114.661 503.947 116.398 508.143 117.798 511.521C118.907 514.189 119.779 516.302 119.716 519.068C119.576 525.171 114.894 531.454 105.789 537.779V515.328C105.789 509.039 100.687 503.942 94.3919 503.942C88.1022 503.942 83 509.039 83 515.328V546H105.789V543.104C117.787 535.386 123.963 527.341 124.15 519.172C124.233 515.468 123.097 512.728 121.894 509.827C120.561 506.615 119.053 502.968 118.767 496.882C118.544 492.111 118.213 484.9 122.164 482.413C124.927 480.678 129.573 481.284 132.109 483.719C133.654 485.2 134.546 487.562 134.567 490.199C134.593 493.965 132.881 497.819 129.874 500.782C129.003 501.642 128.993 503.041 129.853 503.911C130.714 504.781 132.114 504.792 132.985 503.932C136.843 500.135 139.031 495.115 139 490.163C138.974 486.288 137.616 482.864 135.179 480.523Z" fill="white"/>
</g>
</g>
<defs>
<linearGradient id="paint0_linear_47_2136" x1="179.143" y1="129.718" x2="206.651" y2="129.718" gradientUnits="userSpaceOnUse">
<stop offset="0.00558659" stop-color="#FCC8B2"/>
<stop offset="1" stop-color="#FCBCB2"/>
</linearGradient>
<linearGradient id="paint1_linear_47_2136" x1="142.661" y1="125.103" x2="177.385" y2="125.103" gradientUnits="userSpaceOnUse">
<stop offset="0.00558659" stop-color="#FCC8B2"/>
<stop offset="1" stop-color="#FCBCB2"/>
</linearGradient>
<linearGradient id="paint2_linear_47_2136" x1="158.477" y1="104.592" x2="187.934" y2="104.592" gradientUnits="userSpaceOnUse">
<stop offset="0.00558659" stop-color="#FCC8B2"/>
<stop offset="1" stop-color="#FCBCB2"/>
</linearGradient>
<clipPath id="clip0_47_2136">
<rect width="471" height="306" fill="white"/>
</clipPath>
<clipPath id="clip1_47_2136">
<rect width="471" height="306" fill="white" transform="translate(0 352)"/>
</clipPath>
<clipPath id="clip2_47_2136">
<rect width="56" height="69" fill="white" transform="translate(83 477)"/>
</clipPath>
</defs>
</svg>
