<svg width="740" height="651" viewBox="0 0 740 651" fill="none" xmlns="http://www.w3.org/2000/svg">
<g clip-path="url(#clip0_62_2)">
<path d="M132.271 0V60.1893H64.7427V5.00876C64.7427 2.24342 66.9782 0 69.7339 0H132.271Z" fill="#DBD8B3"/>
<path d="M214.899 5.00876V60.1893H146.951V0H209.908C212.663 0 214.899 2.24342 214.899 5.00876Z" fill="#DBD8B3"/>
<path d="M132.271 74.9209H64.7427V133.847H132.271V74.9209Z" fill="#DBD8B3"/>
<path d="M214.899 74.9209H146.951V133.847H214.899V74.9209Z" fill="#DBD8B3"/>
<path d="M132.271 148.579H64.7427V200.35H132.271V148.579Z" fill="#DBD8B3"/>
<path d="M214.899 148.579H146.951V200.35H214.899V148.579Z" fill="#DBD8B3"/>
<path d="M132.271 273.167V212.977H64.7427V268.158C64.7427 270.923 66.9782 273.167 69.7339 273.167H132.271Z" fill="#DBD8B3"/>
<path d="M214.899 268.158V212.977H146.951V273.167H209.908C212.663 273.167 214.899 270.923 214.899 268.158Z" fill="#DBD8B3"/>
<path d="M162.416 183.729H164.328L162.386 182.571L162.378 182.15H163.741L162.336 180.387L160.922 123.258H119.818V193.128L120.263 198.46L118.728 200.388H120.426L120.443 200.59L118.141 201.967H120.556L125.271 258.368C125.271 258.368 139.951 257.947 139.531 257.526C139.221 257.214 139.368 235.997 139.469 224.935C139.506 220.562 139.066 216.206 138.156 211.929L136.18 194.811L136.298 193.208L136.809 193.338L136.39 192.075H136.809L136.419 191.537L139.536 148.512L146.666 193.969L144.607 214.299C144.305 217.3 144.183 220.314 144.25 223.332L144.988 256.688C144.988 256.688 160.927 257.53 160.507 256.688C160.088 255.846 162.604 191.027 162.604 191.027L162.416 183.729Z" fill="#035E7B"/>
<path opacity="0.19" d="M119.269 126.692C118.384 129.394 119.793 132.513 121.366 134.268C123.01 136.108 125.77 137.505 140.66 136.373C158.028 135.051 159.798 132.728 160.373 131.322C161.577 128.38 159.366 124.966 159.115 124.588C152.001 113.913 122.305 117.441 119.269 126.692Z" fill="black"/>
<path d="M111.006 50.0202C111.824 49.0437 126.491 48.5892 132.397 49.5993C142.237 51.2787 141.281 49.191 160.918 50.4411C166.841 50.8199 170.041 51.2914 170.985 53.3875C172.251 56.1991 168.489 59.7894 165.532 64.331C159.446 73.6834 159.09 83.4947 158.821 90.8479C158.146 109.477 168.757 115.147 164.274 123.678C160.423 131.011 149.652 132.421 142.463 133.359C136.059 134.197 124.881 135.662 118.975 129.15C117.314 127.319 115.838 124.6 115.62 106.842C115.376 86.9966 117.201 88.6466 116.039 81.1671C113.787 66.6543 106.522 55.3573 111.006 50.0202Z" fill="#F2F2F2"/>
<path d="M111.006 50.0202C109.936 50.1044 101.758 62.0412 99.6813 66.0146C94.5517 75.8258 88.9313 81.567 89.615 85.3762C90.6594 91.1846 103.846 95.7051 108.489 91.6897C110.884 89.6189 109.022 86.9924 111.006 80.3253C113.611 71.5747 118.325 71.0654 118.975 64.7519C119.718 57.5418 114.445 49.7551 111.006 50.0202Z" fill="#F2F2F2"/>
<path d="M169.634 51.7417C170.704 51.8259 171.622 52.6888 174.667 58.4762C178.673 66.0903 179.302 68.8136 181.378 72.7869C186.508 82.5982 191.709 83.2885 191.025 87.0977C189.981 92.9061 176.794 97.4266 172.151 93.4112C169.756 91.3404 171.618 88.7139 169.634 82.0468C167.029 73.2962 162.315 72.7869 161.665 66.4734C160.922 59.2633 166.199 51.4723 169.634 51.7417Z" fill="#F2F2F2"/>
<path d="M91.2046 88.3056C91.2927 88.7434 85.8401 103.054 85.8401 103.054L138.269 117.786L137.85 113.998L101.359 97.1615L104.295 90.8479" fill="url(#paint0_linear_62_2)"/>
<path d="M176.437 96.3197L178.115 100.95L140.786 90.427V95.4778L188.601 113.156L186.504 88.3225L176.437 96.3197Z" fill="url(#paint1_linear_62_2)"/>
<path d="M145.819 51.7038H134.914L135.304 40.1711H145.848L145.819 51.7038Z" fill="#FCC8B2"/>
<path d="M140.24 133.006C140.937 133.006 141.499 132.442 141.499 131.743V53.0339C141.499 52.3352 140.937 51.7712 140.24 51.7712C139.544 51.7712 138.982 52.3352 138.982 53.0339V131.743C138.982 132.442 139.548 133.006 140.24 133.006Z" fill="#E6E6E6"/>
<path d="M140.366 66.4355C142.219 66.4355 143.722 64.9279 143.722 63.0682C143.722 61.2086 142.219 59.701 140.366 59.701C138.513 59.701 137.011 61.2086 137.011 63.0682C137.011 64.9279 138.513 66.4355 140.366 66.4355Z" fill="#035E7B"/>
<path opacity="0.19" d="M145.819 40.3394C145.819 44.6158 140.983 48.1093 134.914 48.3282V40.3394H145.819Z" fill="black"/>
<path d="M124.428 48.7575L129.461 52.1247L138.269 64.7519C138.269 64.7519 137.715 61.7087 137.573 61.5446C137.43 61.3804 129.88 51.2829 129.88 51.2829L125.543 48.968" fill="#035E7B"/>
<path d="M151.691 51.7038L142.249 64.3225C142.249 64.3225 142.732 61.1153 142.883 60.9637C143.034 60.8122 150.852 51.2829 150.852 51.2829L155.466 49.5993L155.411 50.1675" fill="#035E7B"/>
<path d="M138.688 63.9101L135.333 108.105L138.688 128.308L143.722 131.676L146.741 126.212L141.708 106.851L141.624 63.9101H138.688Z" fill="#035E7B"/>
<path d="M128.622 258.258L129.461 266.365L135.752 265.523L136.26 257.917L128.622 258.258Z" fill="#FCC8B2"/>
<path d="M156.976 257.118L156.133 265.224L149.841 264.382L149.334 256.777L156.976 257.118Z" fill="#FCC8B2"/>
<path d="M104.735 96.9721L87.6855 89.2906C86.3559 88.6929 85.7603 87.1229 86.3559 85.7886L86.5657 85.3214C87.1612 83.9872 88.7257 83.3895 90.0553 83.9872L107.105 91.6687C108.435 92.2664 109.03 93.8363 108.435 95.1706L108.225 95.6378C107.629 96.9763 106.069 97.574 104.735 96.9721Z" fill="#E6E6E6"/>
<path d="M128.203 261.314H137.43L135.752 268.048C135.752 268.048 128.203 268.048 128.203 267.628C128.203 267.207 128.203 261.314 128.203 261.314Z" fill="white"/>
<path d="M176.529 99.2365L192.925 91.8497C194.255 91.252 194.85 89.682 194.255 88.3477L194.045 87.8805C193.449 86.5463 191.885 85.9486 190.555 86.5463L174.16 93.9331C172.83 94.5308 172.234 96.1008 172.83 97.4351L173.04 97.9023C173.635 99.2407 175.196 99.8342 176.529 99.2365Z" fill="#E6E6E6"/>
<path d="M133.454 116.077C134.507 118.19 136.193 119.128 138.298 119.415L138.328 119.444H138.533C138.869 119.482 139.217 119.503 139.573 119.511C139.888 119.52 140.182 119.495 140.463 119.444H143.772C144.305 119.444 144.732 118.88 144.732 118.181V118.021H144.753C145.45 118.021 146.012 117.457 146.012 116.759V116.195H146.033C146.729 116.195 147.291 115.631 147.291 114.932V114.313C147.291 114.01 147.043 113.762 146.741 113.762H146.452V113.131C146.452 112.432 145.89 111.868 145.194 111.868H143.088C142.849 111.683 142.589 111.519 142.312 111.375C142.3 111.329 142.283 111.283 142.258 111.237L142.065 110.904C141.645 110.18 140.723 109.932 140.001 110.348L139.364 110.719C138.722 110.736 138.089 110.858 137.506 111.093C134.893 112.15 132.485 114.124 133.454 116.077Z" fill="#FCC8B2"/>
<path d="M144.435 93.5922C143.176 96.1176 141.016 96.9721 138.315 97.0268C138.001 97.0352 137.707 97.0099 137.426 96.9594H131.852C131.155 96.9594 130.593 96.3954 130.593 95.6967V95.5368H130.174C129.478 95.5368 128.916 94.9728 128.916 94.2741V93.7101H128.496C127.8 93.7101 127.238 93.146 127.238 92.4473V91.8286C127.238 91.5256 127.485 91.2772 127.787 91.2772H128.337V90.6459C128.337 89.9472 128.899 89.3832 129.595 89.3832H134.796C135.09 89.1559 135.413 88.9623 135.765 88.7981L134.163 87.8721C133.882 87.708 133.785 87.3502 133.949 87.0682L134.142 86.7357C134.561 86.0117 135.484 85.7634 136.205 86.1801L140.345 88.5792L140.337 88.5961C140.349 88.6003 140.366 88.6045 140.379 88.6129C143 89.6652 145.408 91.6392 144.435 93.5922Z" fill="#FCC8B2"/>
<path d="M134.075 43.7067V52.9666H141.624L134.075 43.7067Z" fill="#F2F2F2"/>
<path d="M146.658 43.7067V52.9666H139.108L146.658 43.7067Z" fill="#F2F2F2"/>
<path d="M140.404 51.4723L134.075 43.7067L131.139 48.3366" fill="#E6E6E6"/>
<path d="M140.24 51.3503L147.077 42.8649L149.594 48.3366" fill="#E6E6E6"/>
<path d="M117.562 271.618H117.788C117.398 270.94 117.465 269.488 117.788 268.873C118.795 266.954 121.24 266.634 122.805 266.129C128.928 264.138 133.462 262.665 136.025 265.216C137.728 266.912 138.244 270.069 137.288 271.635C137.606 271.694 137.85 271.971 137.85 272.308C137.85 272.687 137.543 272.994 137.166 272.994H117.562C117.184 272.994 116.878 272.687 116.878 272.308C116.878 271.925 117.184 271.618 117.562 271.618Z" fill="#035E7B"/>
<path d="M157.613 261.386H148.386L150.063 268.12C150.063 268.12 157.613 268.12 157.613 267.699C157.613 267.278 157.613 261.386 157.613 261.386Z" fill="white"/>
<path d="M168.25 271.685H168.023C168.413 271.007 168.346 269.555 168.023 268.941C167.017 267.021 164.572 266.702 163.007 266.197C156.883 264.206 152.349 262.732 149.787 265.283C148.084 266.979 147.568 270.136 148.524 271.702C148.205 271.761 147.962 272.039 147.962 272.375C147.962 272.754 148.268 273.061 148.646 273.061H168.25C168.627 273.061 168.934 272.754 168.934 272.375C168.934 271.997 168.632 271.685 168.25 271.685Z" fill="#035E7B"/>
<path d="M137.669 16.6089C136.461 16.752 132.263 17.3076 129.176 20.8684C126.139 24.3745 124.759 30.1241 127.288 34.5983C129.763 38.9799 134.721 39.9059 136.725 40.2805C141.52 41.177 149.711 40.5162 152.769 34.5983C155.059 30.1662 153.1 25.4226 152.769 24.6566C150.193 18.7176 143.34 15.9396 137.669 16.6089Z" fill="#5E0D0C"/>
<path d="M131.411 39.2956L136.352 43.1679C138.718 45.0241 142.023 45.0746 144.447 43.29L148.566 40.2595C150.613 38.7526 151.825 36.3535 151.825 33.807V25.5615C151.825 22.1858 149.099 19.4458 145.731 19.4458H134.079C131.172 19.4458 128.781 21.7397 128.656 24.6523L128.307 32.519C128.186 35.1539 129.343 37.6751 131.411 39.2956Z" fill="#FCC8B2"/>
<path d="M145.693 34.935C145.613 37.9992 143.155 40.4573 140.135 40.4573C137.116 40.4573 134.658 37.9992 134.578 34.935H145.693Z" fill="white"/>
<path d="M150.965 15.7839C150.919 15.7629 150.877 15.746 150.831 15.7292C150.311 12.9638 147.186 10.3079 142.975 9.34828C137.896 8.18658 133.164 9.92912 132.414 13.2374C132.359 13.4816 132.334 13.7257 132.321 13.9698C131.785 14.1634 131.243 14.3823 130.698 14.6348C125.963 16.8235 122.922 20.3254 123.903 22.4636C124.885 24.6018 129.515 24.5597 134.251 22.3753C135.488 21.8028 136.608 21.142 137.573 20.4349C138.399 20.8095 139.297 21.1125 140.253 21.3314C141.205 21.5503 142.149 21.6639 143.055 21.6892C143.944 22.8509 145.265 23.9158 146.892 24.665C150.659 26.4033 154.623 25.8267 155.747 23.3728C156.871 20.9189 154.732 17.5222 150.965 15.7839Z" fill="#5E0D0C"/>
<path opacity="0.38" d="M127.049 23.9452C127.049 23.9452 126.823 25.0185 126.701 25.1911C126.579 25.3637 128.635 24.9891 128.635 24.9891L128.937 23.4696L127.049 23.9452Z" fill="black"/>
<path opacity="0.47" d="M153.377 25.4731C153.377 25.4731 153.591 26.3654 153.704 26.5127C153.822 26.6558 151.888 26.3444 151.888 26.3444L151.603 25.0817L153.377 25.4731Z" fill="black"/>
<path d="M126.802 32.5822C126.122 32.9442 123.975 31.7488 123.128 29.8631C122.448 28.3521 123.446 26.9126 124.331 26.8579C125.904 26.7611 127.213 29.1055 127.28 30.9238C127.292 31.2774 127.33 32.3002 126.802 32.5822Z" fill="#FCC8B2"/>
<path d="M153.121 33.1083C153.8 33.4703 155.948 32.2749 156.795 30.3893C157.475 28.8782 156.476 27.4387 155.591 27.384C154.019 27.2872 152.71 29.6316 152.643 31.4499C152.63 31.8035 152.593 32.8221 153.121 33.1083Z" fill="#FCC8B2"/>
<path opacity="0.19" d="M90.4873 90.5533L89.5269 93.2176L101.703 96.4249L102.018 95.7472L90.4873 90.5533Z" fill="black"/>
<path opacity="0.19" d="M177.36 98.8619L187.028 94.5056C187.028 94.5056 187.569 99.2323 187.397 98.8619C187.217 98.4915 177.36 98.8619 177.36 98.8619Z" fill="black"/>
<path opacity="0.19" d="M128.496 258.435L128.559 258.747L128.79 259.9C128.79 259.9 136.377 258.473 136.214 258.667C136.05 258.86 136.889 257.597 136.47 257.597C136.05 257.597 128.5 257.597 128.5 258.018C128.5 258.439 128.496 258.435 128.496 258.435Z" fill="black"/>
<path opacity="0.19" d="M157.437 257.437L157.374 257.749L157.143 258.902C157.143 258.902 149.556 257.475 149.719 257.669C149.883 257.863 149.044 256.6 149.464 256.6C149.883 256.6 157.433 256.6 157.433 257.021C157.433 257.442 157.437 257.437 157.437 257.437Z" fill="black"/>
<path d="M265.621 198.658H7.25131C4.23979 198.658 1.79871 196.209 1.79871 193.186C1.79871 190.164 4.23979 187.715 7.25131 187.715H265.621C268.632 187.715 271.073 190.164 271.073 193.186C271.073 196.209 268.632 198.658 265.621 198.658Z" fill="#E6E6E6"/>
<path d="M20.6731 192.345H13.9622V277.367H20.6731V192.345Z" fill="#E6E6E6"/>
<path d="M41.7201 192.362H35.0176V277.384H41.7201V192.362Z" fill="#E6E6E6"/>
<path d="M62.7714 192.378H56.0773V277.401H62.7714V192.378Z" fill="#E6E6E6"/>
<path d="M83.8184 192.391H77.1327V277.414H83.8184V192.391Z" fill="#E6E6E6"/>
<path d="M104.861 192.408H98.1881V277.43H104.861V192.408Z" fill="#E6E6E6"/>
<path d="M125.913 192.425H119.248V277.447H125.913V192.425Z" fill="#E6E6E6"/>
<path d="M146.96 192.441H140.303V277.464H146.96V192.441Z" fill="#E6E6E6"/>
<path d="M168.007 192.458H161.359V277.481H168.007V192.458Z" fill="#E6E6E6"/>
<path d="M189.054 192.475H182.414V277.498H189.054V192.475Z" fill="#E6E6E6"/>
<path d="M210.105 192.492H203.474V277.515H210.105V192.492Z" fill="#E6E6E6"/>
<path d="M231.152 192.509H224.529V277.531H231.152V192.509Z" fill="#E6E6E6"/>
<path d="M252.199 192.521H245.585V277.544H252.199V192.521Z" fill="#E6E6E6"/>
<path d="M255.974 292.52H10.1873C4.86055 292.52 0.540405 288.184 0.540405 282.839C0.540405 277.494 4.86055 273.158 10.1873 273.158H255.974C261.301 273.158 265.621 277.494 265.621 282.839C265.621 288.184 261.301 292.52 255.974 292.52Z" fill="#CCCCCC"/>
</g>
<g clip-path="url(#clip1_62_2)">
<path d="M604.609 0V60.217H536.959V5.01106C536.959 2.24445 539.199 0 541.96 0H604.609Z" fill="#EFA48B"/>
<path d="M687.385 5.01106V60.217H619.315V0H682.385C685.145 0 687.385 2.24445 687.385 5.01106Z" fill="#EFA48B"/>
<path d="M604.609 74.9554H536.959V133.909H604.609V74.9554Z" fill="#EFA48B"/>
<path d="M687.385 74.9554H619.315V133.909H687.385V74.9554Z" fill="#EFA48B"/>
<path d="M604.609 148.648H536.959V200.443H604.609V148.648Z" fill="#EFA48B"/>
<path d="M687.385 148.648H619.315V200.443H687.385V148.648Z" fill="#EFA48B"/>
<path d="M604.609 273.292V213.076H536.959V268.281C536.959 271.048 539.199 273.292 541.96 273.292H604.609Z" fill="#EFA48B"/>
<path d="M687.385 268.281V213.076H619.315V273.292H682.385C685.145 273.292 687.385 271.048 687.385 268.281Z" fill="#EFA48B"/>
<path d="M413.846 0V60.217H346.196V5.01106C346.196 2.24445 348.436 0 351.197 0H413.846Z" fill="#EFA48B"/>
<path d="M496.622 5.01106V60.217H428.552V0H491.622C494.382 0 496.622 2.24445 496.622 5.01106Z" fill="#EFA48B"/>
<path d="M413.846 74.9554H346.196V133.909H413.846V74.9554Z" fill="#EFA48B"/>
<path d="M496.622 74.9554H428.552V133.909H496.622V74.9554Z" fill="#EFA48B"/>
<path d="M413.846 148.648H346.196V200.443H413.846V148.648Z" fill="#EFA48B"/>
<path d="M496.622 148.648H428.552V200.443H496.622V148.648Z" fill="#EFA48B"/>
<path d="M413.846 273.292V213.076H346.196V268.281C346.196 271.048 348.436 273.292 351.197 273.292H413.846Z" fill="#EFA48B"/>
<path d="M496.622 268.281V213.076H428.552V273.292H491.622C494.382 273.292 496.622 271.048 496.622 268.281Z" fill="#EFA48B"/>
<path d="M461.327 120.434L460.486 133.909L486.781 128.41C486.781 128.41 478.974 114.539 478.974 114.118C478.974 113.696 461.327 120.434 461.327 120.434Z" fill="url(#paint2_linear_62_2)"/>
<path d="M451.242 82.5352C452.082 82.5352 439.897 125.066 439.897 125.066L425.611 159.596H428.972L448.721 123.803L458.805 79.5875L451.242 82.5352Z" fill="url(#paint3_linear_62_2)"/>
<path opacity="0.19" d="M448.847 92.9363L448.129 95.606L453.898 101.114L454.532 98.7432L448.847 92.9363Z" fill="black"/>
<path d="M459.226 246.763L459.814 264.028H465.108L464.52 234.973L459.226 246.763Z" fill="#FCC8B2"/>
<path d="M490.277 245.972L493.769 262.883L497.987 262.091L492.336 233.591L490.277 245.972Z" fill="#FCC8B2"/>
<path d="M478.264 125.239C476.121 125.058 473.915 125.264 471.726 125.917C469.373 126.62 467.276 127.77 465.499 129.248C464.659 129.951 463.717 130.519 462.751 131.033C461.125 131.892 459.495 133.096 458.146 134.806C453.293 140.967 455.23 149.763 457.255 158.358C466.335 196.926 467.482 200.123 467.482 200.123C481.831 240.278 491.256 254.423 494.466 254.019C499.551 253.379 492.071 215.804 489.088 202.017C484.756 181.982 491.639 162.346 493.971 146.812C494.218 145.717 494.37 144.597 494.403 143.455C494.466 141.594 494.235 139.691 493.676 137.813C491.55 130.646 485.281 125.837 478.264 125.239Z" fill="#EF7772"/>
<path d="M454.183 60.217L454.604 72.8499L462.167 69.9022L459.646 59.3748L454.183 60.217Z" fill="#FCC8B2"/>
<path opacity="0.19" d="M454.183 60.6381V65.4554C454.259 65.4597 454.335 65.4639 454.415 65.4639C457.074 65.4639 459.226 63.3036 459.226 60.6423H454.183V60.6381Z" fill="black"/>
<path d="M452.503 70.3233C446.717 75.705 445.952 88.62 446.2 89.2727C448.183 94.4438 453.293 97.1641 455.444 102.327C459.486 112.02 455.772 116.606 459.226 120.855C464.474 127.311 480.508 125.891 483.176 120.013C484.634 116.808 480.949 114.842 478.134 106.117C474.424 94.6207 478.588 91.1087 474.352 80.0086C473.411 77.5452 469.86 68.2305 464.268 67.7967C462.974 67.6957 453.675 69.2327 452.503 70.3233Z" fill="#C6D8AF"/>
<path d="M482.911 126.287C480.911 125.5 478.735 125.066 476.453 125.066C473.999 125.066 471.659 125.567 469.537 126.477C468.528 126.906 467.47 127.188 466.394 127.399C464.591 127.757 462.684 128.443 460.906 129.694C454.499 134.208 453.851 143.194 453.343 152.012C451.057 191.574 451.242 194.964 451.242 194.964C453.553 237.554 458.553 253.808 461.747 254.339C466.801 255.181 470.339 217.03 471.411 202.965C472.97 182.525 485.159 165.677 491.819 151.456C492.37 150.479 492.832 149.448 493.189 148.365C493.781 146.601 494.101 144.71 494.101 142.748C494.101 135.269 489.466 128.869 482.911 126.287Z" fill="#EF918B"/>
<path opacity="0.19" d="M440.847 121.744L452.339 107.94L449.503 120.375L439.96 124.856L440.847 121.744Z" fill="black"/>
<path d="M456.705 80.0086L459.646 101.906C459.646 101.906 440.317 122.118 440.738 122.118C441.158 122.118 442.418 123.803 442.418 123.803L468.89 105.274L466.369 78.3242L463.827 76.7535C462.15 75.7218 459.974 76.0797 458.713 77.5915L456.705 80.0086Z" fill="url(#paint4_linear_62_2)"/>
<path d="M466.789 46.9608C466.789 51.5929 462.915 57.1051 458.385 60.676C458.079 60.9244 457.768 61.156 457.457 61.3792C454.86 63.2447 452.125 64.428 449.83 64.428C443.196 64.428 442.763 54.5195 442.763 46.9608C442.763 43.0025 444.234 39.44 446.587 36.9387C446.855 36.6524 447.137 36.3786 447.431 36.1218C449.465 34.3321 452.011 33.2667 454.776 33.2667C461.411 33.2667 466.789 39.3979 466.789 46.9608Z" fill="#FCC8B2"/>
<path opacity="0.19" d="M485.966 54.4732C483.874 59.24 476.335 69.7675 471.096 71.1613C465.449 70.9424 462.217 64.9754 458.385 60.676C458.079 60.9244 457.768 61.156 457.457 61.3792C457.158 61.0339 456.856 60.6928 456.553 60.3686C451.788 55.2565 455.104 47.424 448.57 39.3137C447.83 38.3915 447.171 37.6125 446.587 36.9387C446.855 36.6524 447.137 36.3786 447.431 36.1218C445.511 33.9026 444.683 32.9467 444.939 31.5823C445.502 28.5757 450.746 26.6471 456.129 25.9565C457.427 25.8428 458.709 25.8049 459.915 25.8386C461.738 25.8933 474.768 26.4871 482.184 37.2082C484.121 40.0085 489.13 47.2556 485.966 54.4732Z" fill="black"/>
<path d="M487.378 54.3216C485.134 59.4338 476.63 71.1655 471.411 71.1655C471.306 71.1655 471.201 71.1655 471.096 71.1613C465.449 70.9424 462.217 64.9754 458.385 60.676C458.247 60.5202 458.104 60.3686 457.965 60.217C453.204 55.1049 456.515 47.2724 449.982 39.1621C448.982 37.9241 448.129 36.9345 447.431 36.1218C445.511 33.9026 444.683 32.9467 444.939 31.5823C445.502 28.5757 450.746 26.6471 456.129 25.9565C457.902 25.7333 459.688 25.6406 461.327 25.687C463.154 25.7417 476.184 26.3355 483.596 37.0566C485.533 39.8569 490.546 47.104 487.378 54.3216Z" fill="#DBD8B3"/>
<path d="M487.798 59.7959C490.119 59.7959 492 57.9106 492 55.5849C492 53.2593 490.119 51.3739 487.798 51.3739C485.477 51.3739 483.596 53.2593 483.596 55.5849C483.596 57.9106 485.477 59.7959 487.798 59.7959Z" fill="#B5D8AF"/>
<path d="M489.479 53.9005C488.945 53.9216 486.844 54.1995 483.596 62.7436C480.542 70.7823 478.84 75.2628 479.815 81.2719C480.445 85.1586 482.941 94.267 488.218 95.1681C494.08 96.1703 504.631 93.0795 505.446 84.2196C505.988 78.3242 500.063 67.3757 494.101 58.1115C492.437 55.526 491.097 53.8374 489.479 53.9005Z" fill="#DBD8B3"/>
<path d="M467.629 84.2196H455.444V80.2191C455.444 76.8461 458.171 74.1132 461.537 74.1132C464.902 74.1132 467.629 76.8461 467.629 80.2191V84.2196Z" fill="#B5D8AF"/>
<path opacity="0.19" d="M457.272 84.2196L457.616 86.7925L467.003 85.0744L466.923 84.2196H457.272Z" fill="black"/>
<path d="M467.89 270.88C467.81 270.715 467.705 270.581 467.566 270.463C467.575 270.416 467.579 270.37 467.579 270.32C467.579 269.919 467.339 269.587 467.024 269.515C467.965 267.654 467.461 263.889 465.78 261.868C463.255 258.832 458.789 260.588 452.755 262.959C451.217 263.565 448.809 263.944 447.813 266.231C447.494 266.963 447.427 268.694 447.813 269.503H447.591C447.217 269.503 446.918 269.869 446.918 270.32C446.918 270.623 447.053 270.88 447.255 271.023C447.2 271.326 447.225 271.659 447.389 271.924C447.965 272.867 450.028 272.652 451.994 272.185C452.414 272.61 452.999 272.871 453.641 272.871H460.6C461.238 272.871 461.818 272.615 462.234 272.193C464.453 272.817 467.209 273.318 467.886 272.206C468.138 271.802 468.066 271.246 467.89 270.88Z" fill="#EFA48B"/>
<path d="M503.479 265.717C503.341 265.599 503.185 265.519 503.013 265.473C503 265.426 502.983 265.38 502.962 265.338C502.794 264.972 502.437 264.769 502.122 264.841C502.202 262.757 500.172 259.548 497.803 258.415C494.244 256.714 490.916 260.184 486.428 264.866C485.285 266.062 483.256 267.418 483.306 269.907C483.323 270.707 483.983 272.303 484.672 272.88L484.466 272.972C484.13 273.128 484.008 273.587 484.197 273.996C484.323 274.269 484.554 274.45 484.794 274.493C484.869 274.787 485.029 275.082 485.29 275.259C486.206 275.874 487.991 274.813 489.584 273.562C490.143 273.773 490.781 273.768 491.365 273.499L497.685 270.581C498.265 270.311 498.681 269.835 498.887 269.279C501.164 268.917 503.874 268.214 504.025 266.921C504.089 266.45 503.794 265.974 503.479 265.717Z" fill="#EFA48B"/>
<path d="M435.905 121.697C429.061 121.697 423.51 127.26 423.51 134.12C423.51 140.979 429.061 146.542 435.905 146.542C442.75 146.542 448.301 140.979 448.301 134.12C448.301 127.26 442.754 121.697 435.905 121.697ZM435.931 142.613C431.3 142.613 427.548 138.853 427.548 134.212C427.548 129.58 431.3 125.82 435.931 125.82C440.553 125.82 444.305 129.58 444.305 134.212C444.305 138.857 440.553 142.613 435.931 142.613Z" fill="#207D9A"/>
<path d="M440.107 127.593C442.544 127.593 444.519 125.613 444.519 123.171C444.519 120.729 442.544 118.75 440.107 118.75C437.671 118.75 435.695 120.729 435.695 123.171C435.695 125.613 437.671 127.593 440.107 127.593Z" fill="#FCC8B2"/>
<path d="M389.148 137.535C400.379 131.576 415.535 135.156 422.338 146.037C420.149 146.879 419.119 147.405 417.224 148.631C410.724 138.293 398.013 138.512 388.349 143.586C388.395 141.215 388.551 139.986 389.148 137.535Z" fill="#035E7B"/>
<g opacity="0.19">
<path opacity="0.19" d="M390.022 137.097C389.219 139.598 388.975 140.866 388.778 143.316C389.908 142.626 390.48 142.331 391.631 141.826C391.421 139.729 391.404 138.642 391.572 136.448C390.95 136.684 390.639 136.815 390.022 137.097Z" fill="black"/>
</g>
<g opacity="0.19">
<path opacity="0.19" d="M413.779 137.91C412.85 139.931 412.417 140.954 411.615 143.022C413.846 144.365 416.098 146.647 417.388 148.921C419.237 147.62 420.228 147.035 422.329 146.041C419.838 142.58 417.35 140.238 413.779 137.91Z" fill="black"/>
</g>
<path d="M418.073 130.233L448.469 139.754C449.28 140.007 449.704 140.904 449.381 141.695L442.015 159.781C441.759 160.413 441.099 160.779 440.431 160.67C436.057 159.933 420.418 157.032 415.401 156.101C414.518 155.937 413.909 155.124 413.993 154.227C414.434 149.624 415.72 136.271 416.186 131.484C416.283 130.557 417.195 129.955 418.073 130.233Z" fill="#035E7B"/>
<path d="M423.09 159.596C422.699 158.404 424.888 156.05 427.292 155.806C430.573 155.474 433.704 159.145 433.174 160.438C432.695 161.605 429.107 161.146 426.872 160.859C424.796 160.594 423.359 160.409 423.09 159.596Z" fill="#FCC8B2"/>
<path d="M387.584 152.859C386.076 152.859 384.853 151.633 384.853 150.121V129.488C384.853 127.976 386.076 126.75 387.584 126.75C389.093 126.75 390.316 127.976 390.316 129.488V150.121C390.316 151.633 389.093 152.859 387.584 152.859Z" fill="#207D9A"/>
<path d="M734.025 198.758H296.06C293.043 198.758 290.598 196.307 290.598 193.284V193.141C290.598 190.117 293.043 187.666 296.06 187.666H734.029C737.046 187.666 739.492 190.117 739.492 193.141V193.284C739.487 196.307 737.042 198.758 734.025 198.758Z" fill="#E6E6E6"/>
<path d="M311.01 192.299H303.754V277.36H311.01V192.299Z" fill="#E6E6E6"/>
<path d="M338.894 192.534H331.641V277.596H338.894V192.534Z" fill="#E6E6E6"/>
<path d="M366.777 192.77H359.533V277.832H366.777V192.77Z" fill="#E6E6E6"/>
<path d="M394.656 193.006H387.421V278.068H394.656V193.006Z" fill="#E6E6E6"/>
<path d="M422.544 193.246H415.312V278.308H422.544V193.246Z" fill="#E6E6E6"/>
<path d="M450.427 193.482H443.204V278.544H450.427V193.482Z" fill="#E6E6E6"/>
<path d="M478.306 193.718H471.092V278.779H478.306V193.718Z" fill="#E6E6E6"/>
<path d="M506.194 193.953H498.983V279.015H506.194V193.953Z" fill="#E6E6E6"/>
<path d="M534.073 194.189H526.871V279.251H534.073V194.189Z" fill="#E6E6E6"/>
<path d="M561.956 194.425H554.763V279.487H561.956V194.425Z" fill="#E6E6E6"/>
<path d="M589.839 194.665H582.65V279.727H589.839V194.665Z" fill="#E6E6E6"/>
<path d="M617.723 194.901H610.542V279.963H617.723V194.901Z" fill="#E6E6E6"/>
<path d="M645.606 195.137H638.434V280.199H645.606V195.137Z" fill="#E6E6E6"/>
<path d="M673.485 195.373H666.321V280.434H673.485V195.373Z" fill="#E6E6E6"/>
<path d="M701.373 195.608H694.213V280.67H701.373V195.608Z" fill="#E6E6E6"/>
<path d="M729.252 195.848H722.1V280.91H729.252V195.848Z" fill="#E6E6E6"/>
<path d="M729.823 292.52H298.901C293.564 292.52 289.236 288.182 289.236 282.835C289.236 277.487 293.564 273.149 298.901 273.149H729.823C735.16 273.149 739.488 277.487 739.488 282.835C739.488 288.182 735.164 292.52 729.823 292.52Z" fill="#CCCCCC"/>
<path d="M347.377 192.863H312.859C306.909 192.863 302.086 188.029 302.086 182.066V171.13C302.086 165.167 306.909 160.333 312.859 160.333H347.377C353.327 160.333 358.151 165.167 358.151 171.13V182.066C358.151 188.029 353.327 192.863 347.377 192.863Z" fill="#CCCCCC"/>
<path opacity="0.19" d="M357.655 155.28C355.97 150.315 350.592 147.658 345.638 149.347C343.486 150.079 341.768 151.511 340.654 153.305C338.398 149.587 333.801 147.797 329.519 149.254C326.931 150.134 324.969 152.033 323.931 154.349C321.477 152.282 318.036 151.511 314.779 152.618C310.888 153.945 308.418 157.558 308.355 161.453C307.43 161.478 306.493 161.643 305.569 161.954C300.615 163.643 297.964 169.033 299.649 173.998C301.334 178.962 306.712 181.619 311.666 179.931C312.88 179.518 313.952 178.882 314.859 178.086C317.221 181.426 321.57 182.967 325.633 181.586C327.301 181.017 328.708 180.028 329.776 178.777C332.242 180.992 335.793 181.847 339.154 180.706C341.058 180.057 342.621 178.861 343.73 177.354C346.201 179.784 349.915 180.765 353.415 179.573C358.369 177.884 361.021 172.494 359.336 167.53C358.785 165.908 357.844 164.54 356.651 163.479C358.155 161.125 358.621 158.135 357.655 155.28ZM340.675 163.403C340.633 163.382 340.591 163.361 340.553 163.34C340.566 163.319 340.583 163.298 340.595 163.272C340.621 163.319 340.65 163.361 340.675 163.403Z" fill="black"/>
<path d="M358.302 152.189C356.617 147.224 351.239 144.567 346.285 146.256C344.133 146.988 342.415 148.42 341.301 150.214C339.045 146.496 334.448 144.706 330.167 146.163C327.578 147.043 325.616 148.942 324.578 151.258C322.124 149.191 318.683 148.42 315.426 149.528C311.536 150.854 309.065 154.467 309.002 158.362C308.077 158.388 307.14 158.552 306.216 158.863C301.262 160.552 298.611 165.942 300.296 170.907C301.981 175.872 307.359 178.529 312.313 176.84C313.527 176.427 314.599 175.792 315.506 174.996C317.868 178.335 322.217 179.876 326.28 178.495C327.948 177.926 329.356 176.937 330.423 175.686C332.889 177.901 336.44 178.756 339.801 177.615C341.705 176.966 343.268 175.77 344.377 174.263C346.848 176.693 350.562 177.674 354.062 176.482C359.016 174.793 361.668 169.403 359.983 164.439C359.432 162.817 358.491 161.449 357.298 160.388C358.802 158.034 359.268 155.044 358.302 152.189ZM341.322 160.312C341.28 160.291 341.238 160.27 341.201 160.249C341.213 160.228 341.23 160.207 341.243 160.181C341.268 160.228 341.297 160.27 341.322 160.312Z" fill="#C6D8AF"/>
<path d="M320.086 158.741C320.086 157.937 319.548 157.259 318.813 157.048C318.876 156.863 318.914 156.669 318.914 156.463C318.914 155.49 318.128 154.703 317.158 154.703C316.565 154.703 316.044 154.993 315.725 155.444C315.46 155.28 315.145 155.187 314.813 155.187C313.842 155.187 313.057 155.975 313.057 156.947C313.057 157.482 313.292 157.958 313.666 158.282C313.099 158.573 312.712 159.167 312.712 159.849C312.712 160.821 313.498 161.609 314.468 161.609C314.855 161.609 315.212 161.483 315.502 161.272C315.746 161.95 316.393 162.438 317.158 162.438C318.128 162.438 318.914 161.651 318.914 160.678C318.914 160.586 318.906 160.497 318.893 160.413C319.586 160.173 320.086 159.516 320.086 158.741Z" fill="#EFA48B"/>
<path d="M339.032 158.615C339.032 157.811 338.495 157.133 337.759 156.922C337.822 156.737 337.86 156.543 337.86 156.337C337.86 155.364 337.074 154.577 336.104 154.577C335.511 154.577 334.99 154.867 334.671 155.318C334.406 155.153 334.091 155.061 333.759 155.061C332.788 155.061 332.003 155.848 332.003 156.821C332.003 157.356 332.238 157.832 332.612 158.156C332.045 158.446 331.658 159.04 331.658 159.722C331.658 160.695 332.444 161.483 333.415 161.483C333.801 161.483 334.158 161.356 334.448 161.146C334.692 161.824 335.339 162.312 336.104 162.312C337.074 162.312 337.86 161.525 337.86 160.552C337.86 160.459 337.852 160.371 337.839 160.287C338.532 160.047 339.032 159.39 339.032 158.615Z" fill="#EFA48B"/>
<path d="M331.654 169.559C331.654 168.755 331.116 168.077 330.381 167.866C330.444 167.681 330.482 167.487 330.482 167.281C330.482 166.308 329.696 165.521 328.725 165.521C328.133 165.521 327.612 165.811 327.292 166.262C327.028 166.098 326.713 166.005 326.381 166.005C325.41 166.005 324.624 166.793 324.624 167.765C324.624 168.3 324.86 168.776 325.234 169.1C324.666 169.391 324.28 169.985 324.28 170.667C324.28 171.639 325.065 172.427 326.036 172.427C326.423 172.427 326.78 172.301 327.07 172.09C327.313 172.768 327.961 173.256 328.725 173.256C329.696 173.256 330.482 172.469 330.482 171.496C330.482 171.404 330.473 171.315 330.461 171.231C331.154 170.991 331.654 170.334 331.654 169.559Z" fill="#EFA48B"/>
</g>
<g clip-path="url(#clip2_62_2)">
<path d="M596.761 350.833V412.399H527.324V355.956C527.324 353.127 529.623 350.833 532.456 350.833H596.761Z" fill="#C6D8AF"/>
<path d="M681.725 355.956V412.399H611.857V350.833H676.593C679.426 350.833 681.725 353.127 681.725 355.956Z" fill="#C6D8AF"/>
<path d="M596.761 427.467H527.324V487.742H596.761V427.467Z" fill="#C6D8AF"/>
<path d="M681.725 427.467H611.857V487.742H681.725V427.467Z" fill="#C6D8AF"/>
<path d="M596.761 502.811H527.324V555.766H596.761V502.811Z" fill="#C6D8AF"/>
<path d="M681.725 502.811H611.857V555.766H681.725V502.811Z" fill="#C6D8AF"/>
<path d="M596.761 630.248V568.682H527.324V625.125C527.324 627.953 529.623 630.248 532.456 630.248H596.761Z" fill="#C6D8AF"/>
<path d="M681.725 625.125V568.682H611.857V630.248H676.593C679.426 630.248 681.725 627.953 681.725 625.125Z" fill="#C6D8AF"/>
<path d="M581.032 477.28L559.671 547.689L592.72 619.704L603.602 616.488L582.645 545.679L599.975 496.594L602.394 548.494L609.648 627.351H621.336L623.756 548.09L621.742 478.49L581.032 477.28Z" fill="#3C0D0C"/>
<path d="M607.181 396.813H599.621C594.251 396.813 589.9 392.469 589.9 387.109V380.367C589.9 375.007 594.251 370.663 599.621 370.663H607.181C612.551 370.663 616.903 375.007 616.903 380.367V387.109C616.903 392.469 612.551 396.813 607.181 396.813Z" fill="#3C0D0C"/>
<path d="M648.745 432.621C647.964 437.925 637.88 442.691 633.024 439.862C628.427 437.185 629.397 428.195 628.189 428.195C626.52 428.195 625.77 440.263 625.77 440.263C624.006 468.678 629.738 475.92 625.369 482.911C616.389 497.257 575.624 493.24 570.958 480.496C569.534 476.604 572.588 474.938 574.986 462.793C577.828 448.439 576.482 436.013 574.986 435.837C574.123 435.738 574.201 439.828 571.359 441.468C566.269 444.405 553.853 438.304 552.818 430.606C551.696 422.275 564.316 415.253 568.538 412.902C571.001 411.529 574.339 409.996 578.613 408.881C581.891 408.029 584.608 407.702 587.075 407.684C594.614 407.637 599.862 410.44 611.658 409.682C614.436 409.506 616.808 409.178 618.887 408.821C625.947 407.611 629.505 406.066 633.425 408.877C636.211 410.879 635.556 412.489 640.68 420.144C646.377 428.66 649.185 429.65 648.745 432.621Z" fill="#DBD8B3"/>
<path d="M608.441 399.629H597.559V416.123H608.441V399.629Z" fill="#FCC8B2"/>
<path opacity="0.19" d="M608.035 400.839C608.035 404.925 603.39 408.266 597.555 408.477V400.839H608.035V400.839Z" fill="black"/>
<path d="M618.891 408.83C618.399 417.165 611.477 423.773 602.998 423.773C594.204 423.773 587.079 416.661 587.079 407.882V407.693C594.618 407.646 599.867 410.448 611.663 409.691C614.44 409.514 616.816 409.187 618.891 408.83Z" fill="url(#paint5_linear_62_2)"/>
<path d="M603.201 404.46C598.456 404.46 594.312 401.252 593.13 396.667L591.638 390.876C589.943 384.307 594.911 377.905 601.708 377.905H604.697C611.494 377.905 616.463 384.307 614.768 390.876L613.276 396.667C612.089 401.252 607.945 404.46 603.201 404.46Z" fill="url(#paint6_linear_62_2)"/>
<path d="M573.584 477.693C571.898 478.727 574.123 482.433 571.906 486.911C570.647 489.455 569.06 490.007 569.388 491.1C569.927 492.904 575.055 494.105 578.199 491.94C581.589 489.606 581.839 483.936 579.458 480.63C577.949 478.529 574.986 476.837 573.584 477.693Z" fill="url(#paint7_linear_62_2)"/>
<path d="M611.908 380.72H594.088C591.552 380.72 589.494 378.667 589.494 376.135V374.439C589.494 371.907 591.552 369.854 594.088 369.854H611.908C614.444 369.854 616.502 371.907 616.502 374.439V376.135C616.502 378.671 614.444 380.72 611.908 380.72Z" fill="#5E0D0C"/>
<path d="M591.461 389.077L592.686 393.322C590.396 393.877 588.05 392.53 587.394 390.248C587.071 389.124 587.717 387.953 588.843 387.63C589.964 387.307 591.138 387.953 591.461 389.077Z" fill="#FCC8B2"/>
<path d="M614.949 389.787L613.724 394.032C616.014 394.588 618.36 393.24 619.016 390.958C619.339 389.835 618.692 388.664 617.567 388.341C616.445 388.018 615.272 388.664 614.949 389.787Z" fill="#FCC8B2"/>
<path d="M580.226 482.274L577.806 486.7C577.806 486.7 575.119 484.117 571.277 480.432C561.724 471.274 545.041 455.319 544.757 455.319C544.464 455.319 551.679 442.687 555.599 435.85C558.411 439.286 563.156 441.796 567.11 442.299L559.265 451.698L573.049 471.812L580.226 482.274Z" fill="url(#paint8_linear_62_2)"/>
<path d="M651.565 455.719L625.951 463.783L607.324 469.647L606.828 469.802V464.571L607.677 464.132L625.464 454.922L639.472 447.672L636.44 440.866C640.162 440.913 644.682 438.842 647.088 436.065L651.565 455.719Z" fill="url(#paint9_linear_62_2)"/>
<path d="M636.5 630.55H636.181C636.729 629.602 636.634 627.575 636.181 626.718C634.767 624.04 631.334 623.596 629.143 622.886C620.551 620.109 614.186 618.051 610.589 621.607C608.195 623.975 607.475 628.384 608.82 630.567C608.372 630.649 608.031 631.036 608.031 631.51C608.031 632.039 608.462 632.47 608.993 632.47H636.505C637.035 632.47 637.466 632.039 637.466 631.51C637.466 630.98 637.027 630.55 636.5 630.55Z" fill="#035E7B"/>
<path d="M607.63 617.944C607.281 617.625 606.763 617.612 606.401 617.888C605.698 615.425 601.958 612.971 598.594 613.13C594.243 613.333 591.573 617.857 588.515 624.333C586.7 625.129 584.733 626.167 583.974 628.229C583.637 629.137 583.814 631.161 584.487 632.026L584.172 632.069C583.646 632.138 583.279 632.62 583.348 633.146C583.417 633.671 583.9 634.037 584.427 633.968L596.416 632.358L596.266 632.134L596.347 632.186L597.236 630.679L597.555 630.98L597.279 630.614L607.686 619.304C608.048 618.908 608.022 618.301 607.63 617.944Z" fill="#035E7B"/>
<path d="M602.394 473.259H593.932L591.513 455.555H604.814L602.394 473.259Z" fill="#F2F2F2"/>
<path d="M606.021 456.36H590.301L591.107 453.14H605.215L606.021 456.36Z" fill="#C6D8AF"/>
<path d="M604.814 459.981H591.513V463.602H604.814V459.981Z" fill="#C6D8AF"/>
<g opacity="0.07">
<path opacity="0.07" d="M592.319 442.278C591.638 442.682 590.969 443.044 590.365 443.44C590.068 443.634 589.783 443.841 589.585 444.043C589.503 444.142 589.412 444.245 589.421 444.288C589.412 444.301 589.421 444.31 589.434 444.306C589.447 444.301 589.438 444.306 589.464 444.284C589.481 444.267 589.486 444.241 589.494 444.215C589.507 444.189 589.512 444.155 589.507 444.125C589.507 444.099 589.516 444.082 589.512 444.064C589.503 444.043 589.507 444.039 589.516 444.034C589.524 444.03 589.524 444.03 589.529 444.03L589.581 444.056C589.602 444.069 589.654 444.099 589.706 444.129C589.749 444.155 589.805 444.185 589.874 444.215C590.115 444.331 590.43 444.452 590.741 444.564C591.383 444.783 592.06 444.973 592.768 445.179C593.523 445.403 594.277 445.666 595.032 446.058C595.407 446.252 595.795 446.484 596.179 446.82C596.278 446.915 596.373 446.992 596.468 447.104C596.567 447.229 596.662 447.324 596.753 447.483C596.934 447.771 597.081 448.206 597.029 448.658C596.964 449.102 596.74 449.425 596.533 449.64C596.322 449.846 596.115 449.997 595.908 450.105C595.498 450.329 595.097 450.454 594.7 450.553C594.303 450.643 593.911 450.708 593.514 450.733C593.117 450.764 592.725 450.772 592.328 450.733C592.988 450.294 593.639 449.898 594.217 449.472C594.506 449.261 594.778 449.041 594.976 448.826C595.075 448.718 595.144 448.615 595.179 448.538C595.209 448.46 595.157 448.439 595.14 448.508C595.101 448.585 595.123 448.65 595.088 448.632C595.079 448.628 595.028 448.602 595.01 448.581C594.98 448.559 594.916 448.529 594.877 448.499C594.661 448.387 594.389 448.245 594.079 448.137C593.781 448.021 593.454 447.905 593.117 447.806C592.789 447.694 592.444 447.595 592.104 447.496C591.375 447.272 590.611 447.026 589.865 446.669C589.49 446.475 589.115 446.295 588.727 445.998C588.632 445.933 588.533 445.851 588.433 445.761C588.334 445.675 588.239 445.589 588.136 445.464L587.989 445.287C587.937 445.21 587.89 445.128 587.847 445.046C587.756 444.904 587.679 444.654 587.648 444.439C587.64 444.314 587.64 444.189 587.648 444.069C587.666 443.952 587.7 443.836 587.739 443.729C587.773 443.608 587.83 443.543 587.881 443.453C587.933 443.363 587.993 443.289 588.049 443.233C588.282 442.971 588.502 442.855 588.722 442.734C589.154 442.523 589.559 442.424 589.96 442.347C590.741 442.2 591.526 442.174 592.319 442.278Z" fill="white"/>
</g>
<path d="M597.961 463.602C598.245 463.296 599.862 461.643 602.394 461.591C604.857 461.54 607.897 463.016 608.441 465.613C609.058 468.588 606.069 471.42 603.201 472.049C600.76 472.583 597.339 471.756 596.347 469.233C595.287 466.517 597.801 463.774 597.961 463.602Z" fill="url(#paint10_linear_62_2)"/>
<g opacity="0.07">
<path opacity="0.07" d="M597.551 434.016C596.869 434.421 596.201 434.782 595.597 435.178C595.299 435.372 595.015 435.579 594.816 435.781C594.734 435.88 594.644 435.983 594.652 436.026C594.644 436.039 594.652 436.048 594.665 436.044C594.678 436.039 594.67 436.044 594.696 436.022C594.713 436.005 594.717 435.979 594.726 435.953C594.739 435.927 594.743 435.893 594.739 435.863C594.739 435.837 594.747 435.82 594.743 435.803C594.734 435.781 594.739 435.777 594.747 435.772C594.756 435.768 594.756 435.768 594.76 435.768L594.812 435.794C594.834 435.807 594.885 435.837 594.937 435.867C594.98 435.893 595.036 435.923 595.105 435.953C595.347 436.069 595.662 436.19 595.972 436.302C596.615 436.522 597.292 436.711 597.999 436.918C598.754 437.141 599.509 437.404 600.264 437.796C600.639 437.99 601.027 438.222 601.411 438.558C601.51 438.653 601.605 438.73 601.7 438.842C601.799 438.967 601.894 439.062 601.984 439.221C602.166 439.509 602.312 439.944 602.26 440.396C602.196 440.84 601.971 441.163 601.764 441.378C601.553 441.585 601.346 441.735 601.139 441.843C600.729 442.067 600.328 442.192 599.931 442.291C599.535 442.381 599.142 442.446 598.745 442.471C598.349 442.502 597.956 442.51 597.559 442.471C598.219 442.032 598.87 441.636 599.448 441.21C599.737 440.999 600.009 440.779 600.207 440.564C600.307 440.457 600.376 440.353 600.41 440.276C600.44 440.198 600.389 440.177 600.371 440.246C600.333 440.323 600.354 440.388 600.32 440.37C600.311 440.366 600.259 440.34 600.242 440.319C600.212 440.297 600.147 440.267 600.108 440.237C599.893 440.125 599.621 439.983 599.31 439.875C599.013 439.759 598.685 439.643 598.349 439.544C598.021 439.432 597.676 439.333 597.335 439.234C596.606 439.01 595.843 438.765 595.097 438.407C594.721 438.213 594.346 438.033 593.958 437.736C593.863 437.671 593.764 437.589 593.665 437.499C593.566 437.413 593.471 437.327 593.367 437.202L593.221 437.025C593.169 436.948 593.121 436.866 593.078 436.784C592.988 436.642 592.91 436.392 592.88 436.177C592.871 436.052 592.871 435.927 592.88 435.807C592.897 435.691 592.932 435.574 592.97 435.467C593.005 435.346 593.061 435.282 593.113 435.191C593.165 435.101 593.221 435.028 593.281 434.972C593.514 434.709 593.734 434.593 593.954 434.472C594.385 434.261 594.79 434.162 595.192 434.085C595.972 433.943 596.757 433.912 597.551 434.016Z" fill="white"/>
</g>
<g opacity="0.07">
<path opacity="0.07" d="M604.598 441.257C605.392 441.167 606.177 441.206 606.974 441.352C607.375 441.438 607.777 441.542 608.204 441.761C608.419 441.886 608.639 442.006 608.868 442.269C608.924 442.325 608.98 442.398 609.032 442.489C609.083 442.579 609.135 442.648 609.17 442.769C609.204 442.88 609.239 442.992 609.256 443.113C609.265 443.233 609.26 443.358 609.247 443.483C609.213 443.698 609.131 443.948 609.036 444.086C608.989 444.168 608.941 444.245 608.889 444.323L608.743 444.499C608.639 444.624 608.54 444.71 608.441 444.792C608.337 444.882 608.238 444.96 608.143 445.025C607.751 445.313 607.375 445.494 606.996 445.679C606.246 446.028 605.478 446.26 604.745 446.471C604.4 446.566 604.055 446.656 603.727 446.764C603.39 446.859 603.063 446.966 602.761 447.078C602.446 447.181 602.174 447.319 601.954 447.427C601.911 447.453 601.851 447.483 601.816 447.504C601.795 447.522 601.743 447.552 601.739 447.552C601.7 447.569 601.726 447.504 601.687 447.427C601.67 447.358 601.618 447.38 601.648 447.457C601.678 447.535 601.751 447.638 601.846 447.75C602.04 447.969 602.308 448.193 602.593 448.408C603.166 448.843 603.809 449.252 604.464 449.696C604.068 449.73 603.671 449.713 603.278 449.679C602.881 449.648 602.489 449.58 602.092 449.481C601.695 449.377 601.299 449.244 600.889 449.016C600.682 448.904 600.475 448.753 600.268 448.542C600.065 448.327 599.845 447.999 599.789 447.556C599.742 447.1 599.897 446.669 600.082 446.385C600.173 446.23 600.272 446.135 600.371 446.01C600.471 445.898 600.565 445.825 600.665 445.731C601.053 445.399 601.445 445.175 601.825 444.986C602.588 444.607 603.343 444.353 604.102 444.142C604.814 443.948 605.495 443.767 606.138 443.556C606.448 443.453 606.767 443.337 607.013 443.221C607.082 443.19 607.138 443.165 607.181 443.134C607.233 443.109 607.285 443.079 607.306 443.066L607.358 443.044C607.363 443.044 607.363 443.044 607.371 443.048C607.38 443.048 607.388 443.053 607.375 443.079C607.367 443.1 607.38 443.113 607.38 443.139C607.375 443.169 607.38 443.199 607.393 443.229C607.397 443.255 607.406 443.277 607.423 443.298C607.449 443.324 607.436 443.315 607.449 443.32C607.462 443.324 607.47 443.32 607.462 443.302C607.475 443.259 607.384 443.156 607.302 443.053C607.104 442.85 606.823 442.635 606.53 442.441C605.939 442.045 605.271 441.675 604.598 441.257Z" fill="white"/>
</g>
<path d="M609.648 396.008C609.648 399.784 606.582 402.85 602.795 402.85C599.013 402.85 595.942 399.788 595.942 396.008H609.648Z" fill="#F2F2F2"/>
<path opacity="0.19" d="M555.496 436.035L554.638 437.529L565.761 443.918L567.279 442.192L565.579 442.028L563.298 441.072L560.883 439.862L558.463 438.257L556.755 437.202L555.496 436.035Z" fill="black"/>
<path opacity="0.19" d="M636.25 440.668L637.074 442.278L647.589 438.239L647.136 435.837L645.928 437.12L645.174 437.826C644.872 438.106 644.535 438.343 644.164 438.528L643.108 439.057L641.9 439.458L638.946 440.599L636.25 440.668Z" fill="black"/>
<path d="M733.881 554.035H468.208C465.111 554.035 462.601 551.53 462.601 548.438C462.601 545.347 465.111 542.841 468.208 542.841H733.881C736.978 542.841 739.488 545.347 739.488 548.438C739.488 551.53 736.978 554.035 733.881 554.035Z" fill="#E6E6E6"/>
<path d="M482.009 547.577H475.108V634.545H482.009V547.577Z" fill="#E6E6E6"/>
<path d="M503.651 547.595H496.759V634.562H503.651V547.595Z" fill="#E6E6E6"/>
<path d="M525.297 547.612H518.414V634.579H525.297V547.612Z" fill="#E6E6E6"/>
<path d="M546.939 547.625H540.064V634.592H546.939V547.625Z" fill="#E6E6E6"/>
<path d="M568.577 547.642H561.715V634.609H568.577V547.642Z" fill="#E6E6E6"/>
<path d="M590.223 547.659H583.37V634.627H590.223V547.659Z" fill="#E6E6E6"/>
<path d="M611.865 547.676H605.021V634.644H611.865V547.676Z" fill="#E6E6E6"/>
<path d="M633.507 547.694H626.671V634.661H633.507V547.694Z" fill="#E6E6E6"/>
<path d="M655.149 547.711H648.322V634.678H655.149V547.711Z" fill="#E6E6E6"/>
<path d="M676.796 547.728H669.977V634.696H676.796V547.728Z" fill="#E6E6E6"/>
<path d="M698.438 547.745H691.628V634.713H698.438V547.745Z" fill="#E6E6E6"/>
<path d="M720.08 547.758H713.278V634.726H720.08V547.758Z" fill="#E6E6E6"/>
<path d="M723.961 650.044H471.227C465.749 650.044 461.307 645.61 461.307 640.142C461.307 634.674 465.749 630.24 471.227 630.24H723.961C729.439 630.24 733.881 634.674 733.881 640.142C733.881 645.61 729.439 650.044 723.961 650.044Z" fill="#CCCCCC"/>
<path d="M493.899 491.41L489.427 498.195C488.155 498.251 486.606 498.492 484.911 498.492C483.272 498.492 481.733 498.264 480.439 498.2L475.436 490.605L476.751 501.381H476.756C476.82 505.751 480.387 509.269 484.778 509.269C489.211 509.269 492.808 505.678 492.808 501.252C492.808 501.011 492.795 500.796 492.778 500.589L493.899 491.41Z" fill="white"/>
<path d="M481.09 505.062C482.326 505.062 483.329 504.062 483.329 502.828C483.329 501.594 482.326 500.593 481.09 500.593C479.854 500.593 478.852 501.594 478.852 502.828C478.852 504.062 479.854 505.062 481.09 505.062Z" fill="#DBD8B3"/>
<path d="M488.465 505.062C489.701 505.062 490.704 504.062 490.704 502.828C490.704 501.594 489.701 500.593 488.465 500.593C487.229 500.593 486.227 501.594 486.227 502.828C486.227 504.062 487.229 505.062 488.465 505.062Z" fill="#DBD8B3"/>
<path d="M518.569 489.809C515.24 486.618 509.503 485.925 505.781 488.263C500.675 491.47 501.011 498.755 501.236 503.573C501.503 509.277 502.948 512.765 504.112 515.572C505.035 517.789 505.76 519.545 505.708 521.844C505.592 526.916 501.697 532.138 494.124 537.395V518.732C494.124 513.505 489.88 509.269 484.644 509.269C479.408 509.269 475.164 513.505 475.164 518.732V544.224H494.119V541.817C504.099 535.402 509.236 528.716 509.391 521.926C509.46 518.848 508.516 516.57 507.515 514.159C506.407 511.49 505.152 508.459 504.914 503.4C504.729 499.435 504.453 493.442 507.739 491.376C510.038 489.933 513.903 490.437 516.012 492.461C517.297 493.692 518.039 495.655 518.056 497.847C518.077 500.977 516.654 504.18 514.153 506.642C513.428 507.357 513.419 508.519 514.135 509.243C514.851 509.966 516.016 509.975 516.74 509.26C519.949 506.104 521.769 501.932 521.743 497.816C521.726 494.596 520.596 491.75 518.569 489.809Z" fill="white"/>
</g>
<g clip-path="url(#clip3_62_2)">
<path d="M316.869 358.48V418.697H249.219V363.491C249.219 360.725 251.459 358.48 254.22 358.48H316.869Z" fill="#CDDFE5"/>
<path d="M399.645 363.491V418.697H331.575V358.48H394.645C397.405 358.48 399.645 360.725 399.645 363.491Z" fill="#CDDFE5"/>
<path d="M316.869 433.436H249.219V492.389H316.869V433.436Z" fill="#CDDFE5"/>
<path d="M399.645 433.436H331.575V492.389H399.645V433.436Z" fill="#CDDFE5"/>
<path d="M316.869 507.128H249.219V558.923H316.869V507.128Z" fill="#CDDFE5"/>
<path d="M399.645 507.128H331.575V558.923H399.645V507.128Z" fill="#CDDFE5"/>
<path d="M316.869 631.773V571.556H249.219V626.762C249.219 629.528 251.459 631.773 254.22 631.773H316.869Z" fill="#CDDFE5"/>
<path d="M399.645 626.762V571.556H331.575V631.773H394.645C397.405 631.773 399.645 629.528 399.645 626.762Z" fill="#CDDFE5"/>
<path d="M126.106 358.48V418.697H58.4563V363.491C58.4563 360.725 60.6959 358.48 63.4565 358.48H126.106Z" fill="#CDDFE5"/>
<path d="M208.882 363.491V418.697H140.812V358.48H203.882C206.642 358.48 208.882 360.725 208.882 363.491Z" fill="#CDDFE5"/>
<path d="M126.106 433.436H58.4563V492.389H126.106V433.436Z" fill="#CDDFE5"/>
<path d="M208.882 433.436H140.812V492.389H208.882V433.436Z" fill="#CDDFE5"/>
<path d="M126.106 507.128H58.4563V558.923H126.106V507.128Z" fill="#CDDFE5"/>
<path d="M208.882 507.128H140.812V558.923H208.882V507.128Z" fill="#CDDFE5"/>
<path d="M126.106 631.773V571.556H58.4563V626.762C58.4563 629.528 60.6959 631.773 63.4565 631.773H126.106Z" fill="#CDDFE5"/>
<path d="M208.882 626.762V571.556H140.812V631.773H203.882C206.642 631.773 208.882 629.528 208.882 626.762Z" fill="#CDDFE5"/>
<path d="M322.247 408.465C296.07 408.465 274.85 429.73 274.85 455.964V584.104C274.85 610.339 296.07 631.604 322.247 631.604C348.424 631.604 369.644 610.339 369.644 584.104V455.96C369.644 429.73 348.424 408.465 322.247 408.465Z" fill="#DBD8A9"/>
<path d="M322.247 424.167C296.07 424.167 274.85 445.433 274.85 471.667V581.35C274.85 607.585 296.07 628.85 322.247 628.85C348.424 628.85 369.644 607.585 369.644 581.35V471.667C369.644 445.433 348.424 424.167 322.247 424.167Z" fill="#DBC9A7"/>
<path d="M369.64 540.706H274.85V631.773H369.64V540.706Z" fill="#DBAE9B"/>
<path d="M322.247 551.301C348.424 551.301 369.644 546.482 369.644 540.538C369.644 534.593 348.424 529.774 322.247 529.774C296.071 529.774 274.85 534.593 274.85 540.538C274.85 546.482 296.071 551.301 322.247 551.301Z" fill="#DBBD9B"/>
<path d="M328.386 448.102H317.814V460.062H328.386V448.102Z" fill="#FCC8B2"/>
<path d="M373.051 463.822L368.618 478.855L381.577 477.832L380.896 464.504L373.732 463.822" fill="#FCC8B2"/>
<path opacity="0.19" d="M326.68 448.102C326.68 451.572 322.751 454.41 317.814 454.587V448.102H326.68Z" fill="black"/>
<path d="M334.18 437.853H311.675C307.721 437.853 304.515 434.64 304.515 430.677C304.515 426.715 307.721 423.502 311.675 423.502H334.18C338.134 423.502 341.34 426.715 341.34 430.677C341.34 434.64 338.134 437.853 334.18 437.853Z" fill="#CCCCCC"/>
<path d="M338.273 433.069C338.273 441.752 331.651 452.545 323.268 452.545C314.885 452.545 307.923 441.748 307.923 433.069C307.923 424.39 314.885 415.985 323.268 415.985C331.651 415.985 338.273 424.386 338.273 433.069Z" fill="#FCC8B2"/>
<path opacity="0.19" d="M371.69 468.606L370.324 472.366L381.237 473.73V469.629L371.69 468.606Z" fill="black"/>
<path d="M354.639 527.037C354.168 532.267 348.878 536.571 344.067 538.314C338.475 540.34 334.693 538.478 328.382 537.632C309.104 535.047 298.872 543.405 294.624 538.314C293.965 537.527 289.738 537.11 291.217 525.673C292.939 512.324 296.171 513.297 296.33 508.93C296.645 500.491 294.91 501.835 294.624 490.819C294.301 478.287 296.532 476.156 294.284 468.947C292.599 463.553 290.229 461.161 291.557 459.038C292.498 457.531 294.792 456.979 304.856 457.67C306.587 457.788 308.07 457.914 309.36 458.032C310.44 458.137 311.394 458.238 312.243 458.339C317.52 458.963 321.415 459.325 321.907 459.379C328.651 460.146 334.886 459.405 339.966 458.908C345.723 458.352 350.013 458.112 351.912 460.748C353.652 463.157 351.395 465.212 350.546 475.099C349.954 482.03 348.248 480.607 348.16 489.45C348 505.41 347.366 509.423 350.206 516.788C352.29 522.182 354.996 523.096 354.639 527.037Z" fill="#EF938B"/>
<path d="M351.231 461.089C355.761 460.373 364.219 488.212 365.551 487.745C366.375 487.454 361.353 477.525 365.211 472.707C369.32 467.578 383.854 469.25 386.691 475.44C389.191 480.889 380.547 485.298 377.144 500.386C374.619 511.575 377.581 517.095 374.757 518.497C369.959 520.881 355.589 507.844 350.206 491.16C345.647 477.019 347.979 461.603 351.231 461.089Z" fill="#EFA48B"/>
<path d="M291.006 458.697C287.624 458.466 284.645 463.696 283.599 465.532C279.384 472.926 280.107 479.769 280.267 486.035C280.788 506.622 274.371 516.969 278.044 518.497C281.935 520.119 288.469 515.588 302.494 512.686C308.831 511.377 317.411 507.296 319.163 504.142C320.239 502.209 317.411 492.28 315.457 490.814C310.339 486.97 297.914 499.809 294.712 496.967C291.708 494.301 300.007 486.267 298.788 473.048C298.187 466.589 294.952 458.967 291.006 458.697Z" fill="#EFA48B"/>
<path d="M309.583 608.899H298.671V617.59H309.583V608.899Z" fill="#FCC8B2"/>
<path d="M342.874 610.242H334.008V619.346H342.874V610.242Z" fill="#FCC8B2"/>
<path d="M337.933 462.795C335.428 468.787 326.356 470.101 320.886 469.629C318.688 469.439 311.095 468.787 308.612 463.477C308.406 463.035 307.259 460.478 308.003 458.028C309.083 458.133 310.037 458.234 310.885 458.335C316.163 458.958 320.058 459.32 320.55 459.375C327.293 460.142 333.529 459.4 338.609 458.904C338.836 460.639 338.172 462.218 337.933 462.795Z" fill="#EFA48B"/>
<path d="M316.961 464.163C315.549 464.163 314.402 463.018 314.402 461.599L313.381 456.983C313.381 455.569 315.549 454.25 316.961 454.25C318.373 454.25 319.52 455.396 319.52 456.815V461.599C319.52 463.018 318.373 464.163 316.961 464.163Z" fill="#EFB38B"/>
<path d="M322.075 464.163C320.663 464.163 319.516 463.018 319.516 461.599V456.815C319.516 455.4 320.659 454.25 322.075 454.25C323.487 454.25 324.634 455.396 324.634 456.815V461.599C324.634 463.018 323.491 464.163 322.075 464.163Z" fill="#EF938B"/>
<path d="M331.966 454.255C333.378 454.255 335.546 455.573 335.546 456.988L334.525 461.603C334.525 463.018 333.382 464.167 331.966 464.167C330.554 464.167 329.407 463.022 329.407 461.603V456.819C329.407 455.4 330.554 454.255 331.966 454.255Z" fill="#EF938B"/>
<path d="M326.852 454.255C328.264 454.255 329.411 455.4 329.411 456.819V461.603C329.411 463.018 328.268 464.167 326.852 464.167C325.44 464.167 324.293 463.022 324.293 461.603V456.819C324.293 455.4 325.436 454.255 326.852 454.255Z" fill="#EFB38B"/>
<path d="M308.036 434.349L309.654 439.992C306.62 440.729 303.515 438.939 302.646 435.903C302.217 434.408 303.074 432.855 304.566 432.425C306.053 431.995 307.608 432.859 308.036 434.349Z" fill="#FCC8B2"/>
<path d="M337.542 436.813L335.924 442.456C338.958 443.192 342.063 441.403 342.933 438.367C343.361 436.872 342.504 435.318 341.012 434.888C339.525 434.459 337.97 435.318 337.542 436.813Z" fill="#FCC8B2"/>
<path d="M360.702 628.261H360.349C360.954 626.993 360.849 624.273 360.349 623.123C358.79 619.536 355.009 618.938 352.593 617.986C343.122 614.263 336.105 611.505 332.138 616.272C329.499 619.447 328.709 625.355 330.189 628.278C329.693 628.387 329.319 628.909 329.319 629.537C329.319 630.244 329.794 630.821 330.378 630.821H360.706C361.29 630.821 361.765 630.244 361.765 629.537C361.761 628.833 361.29 628.261 360.702 628.261Z" fill="#EFA48B"/>
<path d="M281.38 628.337H281.733C281.128 627.069 281.233 624.349 281.733 623.199C283.292 619.611 287.074 619.013 289.49 618.062C298.961 614.339 305.978 611.581 309.944 616.348C312.583 619.523 313.373 625.431 311.894 628.353C312.39 628.463 312.764 628.985 312.764 629.612C312.764 630.32 312.289 630.897 311.705 630.897H281.38C280.796 630.897 280.321 630.32 280.321 629.612C280.321 628.905 280.796 628.337 281.38 628.337Z" fill="#EFA48B"/>
<path d="M375.19 467.401C371.959 465.195 372.018 460.563 372.026 459.796C372.085 454.987 375.383 448.153 381.119 447.879C385.825 447.656 390.569 451.934 390.397 455.227C390.249 458.024 386.674 457.952 383.363 463.654C382.026 465.949 381.619 467.667 379.842 468.303C377.699 469.073 375.463 467.587 375.19 467.401Z" fill="#FCC8B2"/>
<path opacity="0.11" d="M317.614 506.67C319.267 506.297 319.785 502.338 318.771 497.827C317.758 493.316 315.596 489.962 313.944 490.335C312.291 490.708 311.773 494.667 312.786 499.178C313.8 503.688 315.961 507.043 317.614 506.67Z" fill="black"/>
<path d="M320.117 499.813L325.999 495.602L323.613 490.819L317.18 492.966C315.108 493.657 314.02 495.939 314.789 497.99L314.873 498.209C315.667 500.344 318.268 501.136 320.117 499.813Z" fill="#FCC8B2"/>
<path d="M332.777 483.601C335.231 485.26 335.206 488.768 335.201 489.349C335.176 492.991 332.705 498.184 328.365 498.411C324.802 498.6 321.188 495.379 321.306 492.886C321.407 490.768 324.113 490.806 326.6 486.477C327.6 484.734 327.907 483.433 329.247 482.94C330.869 482.346 332.571 483.462 332.777 483.601Z" fill="#FCC8B2"/>
<path d="M322.15 541.847L316.428 609.033H293.351L287.09 541.99C286.128 531.686 294.187 522.767 304.515 522.708C314.864 522.649 323.029 531.509 322.15 541.847Z" fill="#035E7B"/>
<path d="M356.076 543.111L350.353 610.297H327.277L321.016 543.254C320.054 532.949 328.113 524.031 338.441 523.972C348.79 523.913 356.958 532.773 356.076 543.111Z" fill="#035E7B"/>
<path opacity="0.11" d="M298.524 609.033L298.671 611.8L309.583 610.583L309.726 609.033H298.524Z" fill="black"/>
<path opacity="0.11" d="M334.008 610.242V613.244L342.874 611.156V610.242H334.008Z" fill="black"/>
<path d="M277.01 530.638C277.01 517.878 266.691 507.536 253.959 507.536H253.782C241.051 507.536 230.731 517.878 230.731 530.638C230.731 539.46 235.664 547.119 242.917 551.015V631.773H276.951V532.2C276.989 531.682 277.01 531.164 277.01 530.638Z" fill="#DBBD9B"/>
<path d="M369.719 530.73C369.719 517.971 380.039 507.629 392.771 507.629H392.947C405.679 507.629 415.998 517.971 415.998 530.73C415.998 539.552 411.065 547.212 403.813 551.107V631.865H369.778V532.288C369.74 531.775 369.719 531.252 369.719 530.73Z" fill="#DBBD9B"/>
<path d="M253.001 543.342C260.659 543.342 266.867 537.121 266.867 529.446C266.867 521.771 260.659 515.55 253.001 515.55C245.343 515.55 239.135 521.771 239.135 529.446C239.135 537.121 245.343 543.342 253.001 543.342Z" fill="#DBC9A7"/>
<path d="M392.922 543.763C400.58 543.763 406.788 537.542 406.788 529.867C406.788 522.192 400.58 515.971 392.922 515.971C385.264 515.971 379.056 522.192 379.056 529.867C379.056 537.542 385.264 543.763 392.922 543.763Z" fill="#DBC9A7"/>
<path d="M258.463 626.72C255.446 626.72 253.001 624.269 253.001 621.245V555.133C253.001 552.109 255.446 549.659 258.463 549.659C261.48 549.659 263.926 552.109 263.926 555.133V621.245C263.926 624.269 261.48 626.72 258.463 626.72Z" fill="#DBC9A7"/>
<path d="M390.401 626.72C387.384 626.72 384.938 624.269 384.938 621.245V555.133C384.938 552.109 387.384 549.659 390.401 549.659C393.418 549.659 395.863 552.109 395.863 555.133V621.245C395.863 624.269 393.418 626.72 390.401 626.72Z" fill="#DBC9A7"/>
<path d="M316.104 441.436C312.356 441.436 309.305 438.379 309.305 434.623C309.305 430.867 312.356 427.81 316.104 427.81C319.852 427.81 322.903 430.867 322.903 434.623C322.903 438.379 319.852 441.436 316.104 441.436ZM316.104 428.905C312.957 428.905 310.394 431.473 310.394 434.627C310.394 437.781 312.957 440.35 316.104 440.35C319.251 440.35 321.814 437.781 321.814 434.627C321.814 431.473 319.251 428.905 316.104 428.905Z" fill="#EF938B"/>
<path d="M330.243 441.436C326.495 441.436 323.445 438.379 323.445 434.623C323.445 430.867 326.495 427.81 330.243 427.81C333.991 427.81 337.042 430.867 337.042 434.623C337.037 438.379 333.991 441.436 330.243 441.436ZM330.243 428.905C327.096 428.905 324.533 431.473 324.533 434.627C324.533 437.781 327.096 440.35 330.243 440.35C333.39 440.35 335.953 437.781 335.953 434.627C335.953 431.473 333.39 428.905 330.243 428.905Z" fill="#EF938B"/>
<path d="M446.285 557.238H8.32016C5.30325 557.238 2.85779 554.788 2.85779 551.764V551.621C2.85779 548.597 5.30325 546.147 8.32016 546.147H446.289C449.306 546.147 451.752 548.597 451.752 551.621V551.764C451.747 554.788 449.302 557.238 446.285 557.238Z" fill="#E6E6E6"/>
<path d="M23.2702 550.779H16.0137V635.84H23.2702V550.779Z" fill="#E6E6E6"/>
<path d="M51.1536 551.015H43.9012V636.076H51.1536V551.015Z" fill="#E6E6E6"/>
<path d="M79.0369 551.25H71.793V636.312H79.0369V551.25Z" fill="#E6E6E6"/>
<path d="M106.916 551.486H99.6805V636.548H106.916V551.486Z" fill="#E6E6E6"/>
<path d="M134.804 551.726H127.572V636.788H134.804V551.726Z" fill="#E6E6E6"/>
<path d="M162.687 551.962H155.464V637.024H162.687V551.962Z" fill="#E6E6E6"/>
<path d="M190.566 552.198H183.351V637.26H190.566V552.198Z" fill="#E6E6E6"/>
<path d="M218.454 552.434H211.243V637.495H218.454V552.434Z" fill="#E6E6E6"/>
<path d="M246.333 552.669H239.131V637.731H246.333V552.669Z" fill="#E6E6E6"/>
<path d="M274.216 552.905H267.022V637.967H274.216V552.905Z" fill="#E6E6E6"/>
<path d="M302.099 553.145H294.91V638.207H302.099V553.145Z" fill="#E6E6E6"/>
<path d="M329.983 553.381H322.802V638.443H329.983V553.381Z" fill="#E6E6E6"/>
<path d="M357.866 553.617H350.693V638.679H357.866V553.617Z" fill="#E6E6E6"/>
<path d="M385.745 553.853H378.581V638.915H385.745V553.853Z" fill="#E6E6E6"/>
<path d="M413.633 554.089H406.473V639.15H413.633V554.089Z" fill="#E6E6E6"/>
<path d="M441.512 554.329H434.36V639.39H441.512V554.329Z" fill="#E6E6E6"/>
<path d="M442.083 651H11.1605C5.82422 651 1.49634 646.663 1.49634 641.315C1.49634 635.967 5.82422 631.629 11.1605 631.629H442.083C447.42 631.629 451.747 635.967 451.747 641.315C451.747 646.663 447.424 651 442.083 651Z" fill="#CCCCCC"/>
<g clip-path="url(#clip4_62_2)">
<path d="M102.367 483.188L97.227 490.992C95.7648 491.057 93.9853 491.334 92.0373 491.334C90.1537 491.334 88.3842 491.072 86.8971 490.997L81.1423 482.267L82.6541 494.662H82.6591C82.7384 499.683 86.8377 503.729 91.8836 503.729C96.9792 503.729 101.113 499.599 101.113 494.508C101.113 494.231 101.098 493.983 101.078 493.746L102.367 483.188Z" fill="white"/>
<path d="M87.6506 498.891C89.0713 498.891 90.2231 497.74 90.2231 496.321C90.2231 494.901 89.0713 493.751 87.6506 493.751C86.2298 493.751 85.078 494.901 85.078 496.321C85.078 497.74 86.2298 498.891 87.6506 498.891Z" fill="#DBD8B3"/>
<path d="M96.1216 498.891C97.5424 498.891 98.6942 497.74 98.6942 496.321C98.6942 494.901 97.5424 493.751 96.1216 493.751C94.7008 493.751 93.5491 494.901 93.5491 496.321C93.5491 497.74 94.7008 498.891 96.1216 498.891Z" fill="#DBD8B3"/>
<path d="M130.72 481.341C126.893 477.671 120.301 476.874 116.023 479.563C110.154 483.252 110.541 491.631 110.799 497.172C111.106 503.734 112.766 507.745 114.105 510.973C115.166 513.524 115.998 515.544 115.939 518.188C115.805 524.022 111.329 530.029 102.625 536.075V514.613C102.625 508.601 97.7475 503.729 91.73 503.729C85.7174 503.729 80.84 508.601 80.84 514.613V543.934H102.625V541.166C114.095 533.787 119.998 526.097 120.177 518.287C120.256 514.747 119.171 512.127 118.021 509.354C116.747 506.284 115.304 502.798 115.032 496.979C114.819 492.418 114.501 485.525 118.278 483.148C120.92 481.489 125.362 482.069 127.785 484.396C129.263 485.812 130.115 488.071 130.135 490.591C130.16 494.191 128.524 497.875 125.649 500.708C124.816 501.53 124.806 502.867 125.629 503.699C126.452 504.531 127.79 504.541 128.623 503.719C132.311 500.089 134.403 495.29 134.373 490.556C134.348 486.852 133.05 483.579 130.72 481.341Z" fill="white"/>
</g>
</g>
<defs>
<linearGradient id="paint0_linear_62_2" x1="85.8399" y1="103.045" x2="138.269" y2="103.045" gradientUnits="userSpaceOnUse">
<stop offset="0.00558659" stop-color="#FCC8B2"/>
<stop offset="0.3966" stop-color="#FCBCB2"/>
<stop offset="1" stop-color="#FCC7B2"/>
</linearGradient>
<linearGradient id="paint1_linear_62_2" x1="140.785" y1="100.739" x2="188.601" y2="100.739" gradientUnits="userSpaceOnUse">
<stop offset="0.00558659" stop-color="#FCC8B2"/>
<stop offset="1" stop-color="#FCBCB2"/>
</linearGradient>
<linearGradient id="paint2_linear_62_2" x1="460.488" y1="124.004" x2="486.783" y2="124.004" gradientUnits="userSpaceOnUse">
<stop offset="0.00558659" stop-color="#FCC8B2"/>
<stop offset="1" stop-color="#FCBCB2"/>
</linearGradient>
<linearGradient id="paint3_linear_62_2" x1="425.613" y1="119.592" x2="458.807" y2="119.592" gradientUnits="userSpaceOnUse">
<stop offset="0.00558659" stop-color="#FCC8B2"/>
<stop offset="1" stop-color="#FCBCB2"/>
</linearGradient>
<linearGradient id="paint4_linear_62_2" x1="440.732" y1="99.9848" x2="468.891" y2="99.9848" gradientUnits="userSpaceOnUse">
<stop offset="0.00558659" stop-color="#FCC8B2"/>
<stop offset="1" stop-color="#FCBCB2"/>
</linearGradient>
<linearGradient id="paint5_linear_62_2" x1="587.079" y1="415.73" x2="618.89" y2="415.73" gradientUnits="userSpaceOnUse">
<stop offset="0.00558659" stop-color="#FCC8B2"/>
<stop offset="1" stop-color="#FCBCB2"/>
</linearGradient>
<linearGradient id="paint6_linear_62_2" x1="591.301" y1="391.182" x2="615.1" y2="391.182" gradientUnits="userSpaceOnUse">
<stop offset="0.00558659" stop-color="#FCC8B2"/>
<stop offset="1" stop-color="#FCBCB2"/>
</linearGradient>
<linearGradient id="paint7_linear_62_2" x1="569.345" y1="485.282" x2="581.033" y2="485.282" gradientUnits="userSpaceOnUse">
<stop offset="0.00558659" stop-color="#FCC8B2"/>
<stop offset="1" stop-color="#FCBCB2"/>
</linearGradient>
<linearGradient id="paint8_linear_62_2" x1="544.751" y1="461.274" x2="580.227" y2="461.274" gradientUnits="userSpaceOnUse">
<stop offset="0.00558659" stop-color="#FCC8B2"/>
<stop offset="1" stop-color="#FCBCB2"/>
</linearGradient>
<linearGradient id="paint9_linear_62_2" x1="606.827" y1="452.934" x2="651.565" y2="452.934" gradientUnits="userSpaceOnUse">
<stop offset="0.00558659" stop-color="#FCC8B2"/>
<stop offset="1" stop-color="#FCBCB2"/>
</linearGradient>
<linearGradient id="paint10_linear_62_2" x1="596.087" y1="466.897" x2="608.522" y2="466.897" gradientUnits="userSpaceOnUse">
<stop stop-color="#FCBCB2"/>
<stop offset="0.9944" stop-color="#FCC8B2"/>
</linearGradient>
<clipPath id="clip0_62_2">
<rect width="270.533" height="292.52" fill="white" transform="translate(0.540405)"/>
</clipPath>
<clipPath id="clip1_62_2">
<rect width="450.251" height="292.52" fill="white" transform="translate(289.236)"/>
</clipPath>
<clipPath id="clip2_62_2">
<rect width="278.181" height="299.211" fill="white" transform="translate(461.307 350.833)"/>
</clipPath>
<clipPath id="clip3_62_2">
<rect width="450.251" height="292.52" fill="white" transform="translate(1.49634 358.48)"/>
</clipPath>
<clipPath id="clip4_62_2">
<rect width="53.533" height="65.9604" fill="white" transform="translate(80.84 477.974)"/>
</clipPath>
</defs>
</svg>
